<svg xmlns="http://www.w3.org/2000/svg" xmlns:xlink="http://www.w3.org/1999/xlink" viewBox="0 0 1366 706">
  <defs>
    <clipPath id="clip-path">
      <rect width="1368" height="707" style="fill: none"/>
    </clipPath>
    <clipPath id="clip-path-2">
      <rect x="-6" y="-6.5" width="1378" height="719" style="fill: none"/>
    </clipPath>
    <linearGradient id="linear-gradient" x1="384.3" y1="575.03" x2="385.5" y2="575.03" gradientTransform="matrix(-837.09, 467.84, 467.84, 837.09, 53758.15, -661012.93)" gradientUnits="userSpaceOnUse">
      <stop offset="0" stop-color="#e96825"/>
      <stop offset="0.01" stop-color="#e96825"/>
      <stop offset="0.48" stop-color="#e6352e"/>
      <stop offset="1" stop-color="#d9362d"/>
    </linearGradient>
    <linearGradient id="_ÂÁ_Ï_ÌÌ_È_ËÂÌÚ_4" data-name="¡ÂÁ˚ÏˇÌÌ˚È „‡‰ËÂÌÚ 4" x1="1038.6" y1="151.33" x2="557.9" y2="-85.69" gradientUnits="userSpaceOnUse">
      <stop offset="0.01" stop-color="#ff4807"/>
      <stop offset="0.48" stop-color="#fe130c"/>
      <stop offset="1" stop-color="#ea140b"/>
    </linearGradient>
    <clipPath id="clip-path-3">
      <rect x="999" y="129" width="131.95" height="130.03" style="fill: none"/>
    </clipPath>
    <clipPath id="clip-path-4">
      <rect x="999.15" y="129.15" width="131.65" height="129.73" style="fill: none"/>
    </clipPath>
    <clipPath id="clip-path-5">
      <rect x="43.96" y="378.74" width="105.04" height="103.51" style="fill: none"/>
    </clipPath>
    <clipPath id="clip-path-6">
      <rect x="44.08" y="378.85" width="104.8" height="103.28" style="fill: none"/>
    </clipPath>
    <clipPath id="clip-path-7">
      <rect x="-74" y="378.74" width="105.04" height="103.51" style="fill: none"/>
    </clipPath>
    <clipPath id="clip-path-8">
      <rect x="-73.88" y="378.85" width="104.8" height="103.28" style="fill: none"/>
    </clipPath>
    <clipPath id="clip-path-9">
      <rect x="43.96" y="495.49" width="105.04" height="103.51" style="fill: none"/>
    </clipPath>
    <clipPath id="clip-path-10">
      <rect x="44.08" y="495.61" width="104.8" height="103.28" style="fill: none"/>
    </clipPath>
    <clipPath id="clip-path-11">
      <rect x="-74" y="495.49" width="105.04" height="103.51" style="fill: none"/>
    </clipPath>
    <clipPath id="clip-path-12">
      <rect x="-73.88" y="495.61" width="104.8" height="103.28" style="fill: none"/>
    </clipPath>
    <linearGradient id="_ÂÁ_Ï_ÌÌ_È_ËÂÌÚ_2" data-name="¡ÂÁ˚ÏˇÌÌ˚È „‡‰ËÂÌÚ 2" x1="-31.06" y1="701.55" x2="154.38" y2="547.2" gradientUnits="userSpaceOnUse">
      <stop offset="0" stop-color="#ea140b"/>
      <stop offset="0.52" stop-color="#fe130c"/>
      <stop offset="0.99" stop-color="#ff4807"/>
    </linearGradient>
    <linearGradient id="_ÂÁ_Ï_ÌÌ_È_ËÂÌÚ_2-2" x1="1304.18" y1="425.38" x2="1517.63" y2="247.72" gradientTransform="translate(661.87 -864.86) rotate(45)" xlink:href="#_ÂÁ_Ï_ÌÌ_È_ËÂÌÚ_2"/>
    <linearGradient id="_ÂÁ_Ï_ÌÌ_È_ËÂÌÚ_2-3" x1="104.52" y1="62.99" x2="165.94" y2="11.87" gradientTransform="translate(114.99 -86.68) rotate(65.5)" xlink:href="#_ÂÁ_Ï_ÌÌ_È_ËÂÌÚ_2"/>
  </defs>
  <g style="isolation: isolate">
    <g id="Base_Window" data-name="Base Window">
      <g style="clip-path: url(#clip-path)">
        <g>
          <g style="clip-path: url(#clip-path-2)">
            <polygon points="1786.98 541.37 321.97 1145.5 -420.98 164.63 1044.03 -439.5 1786.98 541.37" style="fill: url(#linear-gradient)"/>
          </g>
          <ellipse cx="683" cy="-24" rx="411.55" ry="428" style="mix-blend-mode: screen;opacity: 0.6000000000000001;fill: url(#_ÂÁ_Ï_ÌÌ_È_ËÂÌÚ_4)"/>
          <g style="opacity: 0.37">
            <g>
              <path d="M1158.13,253.55a5.41,5.41,0,1,1-5.4-5.32,5.36,5.36,0,0,1,5.4,5.32m24.81-5.32a5.33,5.33,0,1,0,5.4,5.32,5.36,5.36,0,0,0-5.4-5.32m30.21,0a5.33,5.33,0,1,0,5.4,5.32,5.36,5.36,0,0,0-5.4-5.32m5.4-24.45a5.41,5.41,0,1,0-5.4,5.33,5.36,5.36,0,0,0,5.4-5.33m0-29.77a5.41,5.41,0,1,0-5.4,5.33,5.36,5.36,0,0,0,5.4-5.33m0-29.77a5.41,5.41,0,1,0-5.4,5.33,5.36,5.36,0,0,0,5.4-5.33m0-29.77a5.41,5.41,0,1,0-5.4,5.33,5.36,5.36,0,0,0,5.4-5.33m-30.21,89.31a5.41,5.41,0,1,0-5.4,5.33,5.36,5.36,0,0,0,5.4-5.33m0-29.77a5.41,5.41,0,1,0-5.4,5.33,5.36,5.36,0,0,0,5.4-5.33m0-29.77a5.41,5.41,0,1,0-5.4,5.33,5.36,5.36,0,0,0,5.4-5.33m0-29.77a5.41,5.41,0,1,0-5.4,5.33,5.36,5.36,0,0,0,5.4-5.33m-30.21,89.31a5.41,5.41,0,1,0-5.4,5.33,5.36,5.36,0,0,0,5.4-5.33m0-29.77a5.41,5.41,0,1,0-5.4,5.33,5.36,5.36,0,0,0,5.4-5.33m0-29.77a5.41,5.41,0,1,0-5.4,5.33,5.36,5.36,0,0,0,5.4-5.33m0-29.77a5.41,5.41,0,1,0-5.4,5.33,5.36,5.36,0,0,0,5.4-5.33" style="fill: #fff"/>
              <g style="clip-path: url(#clip-path-3)">
                <g style="clip-path: url(#clip-path-4)">
                  <path d="M1010,253.55a5.41,5.41,0,1,1-5.4-5.32,5.36,5.36,0,0,1,5.4,5.32m24.81-5.32a5.33,5.33,0,1,0,5.4,5.32,5.36,5.36,0,0,0-5.4-5.32m30.21,0a5.33,5.33,0,1,0,5.4,5.32,5.36,5.36,0,0,0-5.4-5.32m30.21,0a5.33,5.33,0,1,0,5.4,5.32,5.36,5.36,0,0,0-5.4-5.32m30.21,0a5.33,5.33,0,1,0,5.4,5.32,5.36,5.36,0,0,0-5.4-5.32m5.4-24.45a5.41,5.41,0,1,0-5.4,5.33,5.36,5.36,0,0,0,5.4-5.33m0-29.77a5.41,5.41,0,1,0-5.4,5.33,5.36,5.36,0,0,0,5.4-5.33m0-29.77a5.41,5.41,0,1,0-5.4,5.33,5.36,5.36,0,0,0,5.4-5.33m0-29.77a5.41,5.41,0,1,0-5.4,5.33,5.36,5.36,0,0,0,5.4-5.33m-30.21,89.31a5.41,5.41,0,1,0-5.4,5.33,5.36,5.36,0,0,0,5.4-5.33m0-29.77a5.41,5.41,0,1,0-5.4,5.33,5.36,5.36,0,0,0,5.4-5.33m0-29.77a5.41,5.41,0,1,0-5.4,5.33,5.36,5.36,0,0,0,5.4-5.33m0-29.77a5.41,5.41,0,1,0-5.4,5.33,5.36,5.36,0,0,0,5.4-5.33m-30.21,89.31a5.41,5.41,0,1,0-5.4,5.33,5.36,5.36,0,0,0,5.4-5.33m0-29.77a5.41,5.41,0,1,0-5.4,5.33,5.36,5.36,0,0,0,5.4-5.33m0-29.77a5.41,5.41,0,1,0-5.4,5.33,5.36,5.36,0,0,0,5.4-5.33m0-29.77a5.41,5.41,0,1,0-5.4,5.33,5.36,5.36,0,0,0,5.4-5.33m-30.21,89.31a5.41,5.41,0,1,0-5.4,5.33,5.36,5.36,0,0,0,5.4-5.33m0-29.77a5.41,5.41,0,1,0-5.4,5.33,5.36,5.36,0,0,0,5.4-5.33m0-29.77a5.41,5.41,0,1,0-5.4,5.33,5.36,5.36,0,0,0,5.4-5.33m0-29.77a5.41,5.41,0,1,0-5.4,5.33,5.36,5.36,0,0,0,5.4-5.33M1010,223.78a5.41,5.41,0,1,0-5.4,5.33,5.36,5.36,0,0,0,5.4-5.33m0-29.77a5.41,5.41,0,1,0-5.4,5.33A5.36,5.36,0,0,0,1010,194m0-29.77a5.41,5.41,0,1,0-5.4,5.33,5.36,5.36,0,0,0,5.4-5.33m0-29.77a5.41,5.41,0,1,0-5.4,5.33,5.36,5.36,0,0,0,5.4-5.33" style="fill: #fff"/>
                </g>
              </g>
            </g>
            <g>
              <path d="M1218.55,340.67a5.41,5.41,0,1,0-5.4,5.33,5.36,5.36,0,0,0,5.4-5.33m0-29.77a5.41,5.41,0,1,0-5.4,5.33,5.36,5.36,0,0,0,5.4-5.33m0-29.77a5.41,5.41,0,1,0-5.4,5.33,5.36,5.36,0,0,0,5.4-5.33m-30.21,59.54a5.41,5.41,0,1,0-5.4,5.33,5.36,5.36,0,0,0,5.4-5.33m0-29.77a5.41,5.41,0,1,0-5.4,5.33,5.36,5.36,0,0,0,5.4-5.33m0-29.77a5.41,5.41,0,1,0-5.4,5.33,5.36,5.36,0,0,0,5.4-5.33m-30.21,59.54a5.41,5.41,0,1,0-5.4,5.33,5.36,5.36,0,0,0,5.4-5.33m0-29.77a5.41,5.41,0,1,0-5.4,5.33,5.36,5.36,0,0,0,5.4-5.33m0-29.77a5.41,5.41,0,1,0-5.4,5.33,5.36,5.36,0,0,0,5.4-5.33" style="fill: #fff"/>
              <path d="M1130.8,340.67a5.41,5.41,0,1,0-5.4,5.33,5.36,5.36,0,0,0,5.4-5.33m0-29.77a5.41,5.41,0,1,0-5.4,5.33,5.36,5.36,0,0,0,5.4-5.33m0-29.77a5.41,5.41,0,1,0-5.4,5.33,5.36,5.36,0,0,0,5.4-5.33m-30.21,59.54a5.41,5.41,0,1,0-5.4,5.33,5.36,5.36,0,0,0,5.4-5.33m0-29.77a5.41,5.41,0,1,0-5.4,5.33,5.36,5.36,0,0,0,5.4-5.33m0-29.77a5.41,5.41,0,1,0-5.4,5.33,5.36,5.36,0,0,0,5.4-5.33m-30.21,59.54A5.41,5.41,0,1,0,1065,346a5.36,5.36,0,0,0,5.4-5.33m0-29.77a5.41,5.41,0,1,0-5.4,5.33,5.36,5.36,0,0,0,5.4-5.33m0-29.77a5.41,5.41,0,1,0-5.4,5.33,5.36,5.36,0,0,0,5.4-5.33m-30.21,59.54a5.41,5.41,0,1,0-5.4,5.33,5.36,5.36,0,0,0,5.4-5.33m0-29.77a5.41,5.41,0,1,0-5.4,5.33,5.36,5.36,0,0,0,5.4-5.33m0-29.77a5.41,5.41,0,1,0-5.4,5.33,5.36,5.36,0,0,0,5.4-5.33M1010,340.67a5.41,5.41,0,1,0-5.4,5.33,5.36,5.36,0,0,0,5.4-5.33m0-29.77a5.41,5.41,0,1,0-5.4,5.33,5.36,5.36,0,0,0,5.4-5.33m0-29.77a5.41,5.41,0,1,0-5.4,5.33,5.36,5.36,0,0,0,5.4-5.33" style="fill: #fff"/>
            </g>
          </g>
          <g style="opacity: 0.37">
            <g>
              <g style="clip-path: url(#clip-path-5)">
                <g style="clip-path: url(#clip-path-6)">
                  <path d="M52.68,477.89a4.3,4.3,0,1,1-4.3-4.24,4.27,4.27,0,0,1,4.3,4.24m19.75-4.24a4.24,4.24,0,1,0,4.3,4.24,4.27,4.27,0,0,0-4.3-4.24m24,0a4.24,4.24,0,1,0,4.3,4.24,4.27,4.27,0,0,0-4.3-4.24m24,0a4.24,4.24,0,1,0,4.3,4.24,4.27,4.27,0,0,0-4.3-4.24m24.05,0a4.24,4.24,0,1,0,4.3,4.24,4.28,4.28,0,0,0-4.3-4.24m4.3-19.46a4.31,4.31,0,1,0-4.3,4.24,4.27,4.27,0,0,0,4.3-4.24m0-23.7a4.31,4.31,0,1,0-4.3,4.24,4.27,4.27,0,0,0,4.3-4.24m0-23.7a4.31,4.31,0,1,0-4.3,4.24,4.27,4.27,0,0,0,4.3-4.24m0-23.7a4.31,4.31,0,1,0-4.3,4.24,4.27,4.27,0,0,0,4.3-4.24m-24,71.1a4.3,4.3,0,1,0-4.3,4.24,4.27,4.27,0,0,0,4.3-4.24m0-23.7a4.3,4.3,0,1,0-4.3,4.24,4.27,4.27,0,0,0,4.3-4.24m0-23.7a4.3,4.3,0,1,0-4.3,4.24,4.27,4.27,0,0,0,4.3-4.24m0-23.7a4.3,4.3,0,1,0-4.3,4.24,4.27,4.27,0,0,0,4.3-4.24m-24,71.1a4.3,4.3,0,1,0-4.3,4.24,4.27,4.27,0,0,0,4.3-4.24m0-23.7a4.3,4.3,0,1,0-4.3,4.24,4.27,4.27,0,0,0,4.3-4.24m0-23.7a4.3,4.3,0,1,0-4.3,4.24,4.27,4.27,0,0,0,4.3-4.24m0-23.7a4.3,4.3,0,1,0-4.3,4.24,4.27,4.27,0,0,0,4.3-4.24m-24,71.1a4.3,4.3,0,1,0-4.3,4.24,4.27,4.27,0,0,0,4.3-4.24m0-23.7a4.3,4.3,0,1,0-4.3,4.24,4.27,4.27,0,0,0,4.3-4.24m0-23.7a4.3,4.3,0,1,0-4.3,4.24,4.27,4.27,0,0,0,4.3-4.24m0-23.7a4.3,4.3,0,1,0-4.3,4.24,4.27,4.27,0,0,0,4.3-4.24m-24.05,71.1a4.3,4.3,0,1,0-4.3,4.24,4.27,4.27,0,0,0,4.3-4.24m0-23.7a4.3,4.3,0,1,0-4.3,4.24,4.27,4.27,0,0,0,4.3-4.24m0-23.7a4.3,4.3,0,1,0-4.3,4.24,4.27,4.27,0,0,0,4.3-4.24m0-23.7a4.3,4.3,0,1,0-4.3,4.24,4.27,4.27,0,0,0,4.3-4.24" style="fill: #fff"/>
                </g>
              </g>
              <g style="clip-path: url(#clip-path-7)">
                <g style="clip-path: url(#clip-path-8)">
                  <path d="M-65.27,477.89a4.28,4.28,0,0,1-4.31,4.24,4.27,4.27,0,0,1-4.3-4.24,4.27,4.27,0,0,1,4.3-4.24,4.28,4.28,0,0,1,4.31,4.24m19.74-4.24a4.27,4.27,0,0,0-4.3,4.24,4.27,4.27,0,0,0,4.3,4.24,4.28,4.28,0,0,0,4.31-4.24,4.28,4.28,0,0,0-4.31-4.24m24.05,0a4.27,4.27,0,0,0-4.3,4.24,4.27,4.27,0,0,0,4.3,4.24,4.28,4.28,0,0,0,4.31-4.24,4.28,4.28,0,0,0-4.31-4.24m24.05,0a4.24,4.24,0,1,0,0,8.48,4.24,4.24,0,1,0,0-8.48m24.05,0a4.24,4.24,0,1,0,4.3,4.24,4.27,4.27,0,0,0-4.3-4.24m4.3-19.46a4.3,4.3,0,1,0-4.3,4.24,4.27,4.27,0,0,0,4.3-4.24m0-23.7a4.3,4.3,0,1,0-4.3,4.24,4.27,4.27,0,0,0,4.3-4.24m0-23.7a4.3,4.3,0,1,0-4.3,4.24,4.27,4.27,0,0,0,4.3-4.24m0-23.7a4.3,4.3,0,1,0-4.3,4.24,4.27,4.27,0,0,0,4.3-4.24m-24,71.1A4.27,4.27,0,0,0,2.57,450a4.24,4.24,0,1,0,0,8.48,4.27,4.27,0,0,0,4.3-4.24m0-23.7a4.27,4.27,0,0,0-4.3-4.24,4.24,4.24,0,1,0,0,8.48,4.27,4.27,0,0,0,4.3-4.24m0-23.7a4.27,4.27,0,0,0-4.3-4.24,4.24,4.24,0,1,0,0,8.48,4.27,4.27,0,0,0,4.3-4.24m0-23.7a4.27,4.27,0,0,0-4.3-4.24,4.24,4.24,0,1,0,0,8.48,4.26,4.26,0,0,0,4.3-4.24m-24,71.1A4.28,4.28,0,0,0-21.48,450a4.27,4.27,0,0,0-4.3,4.24,4.27,4.27,0,0,0,4.3,4.24,4.28,4.28,0,0,0,4.31-4.24m0-23.7a4.28,4.28,0,0,0-4.31-4.24,4.27,4.27,0,0,0-4.3,4.24,4.27,4.27,0,0,0,4.3,4.24,4.28,4.28,0,0,0,4.31-4.24m0-23.7a4.28,4.28,0,0,0-4.31-4.24,4.27,4.27,0,0,0-4.3,4.24,4.27,4.27,0,0,0,4.3,4.24,4.28,4.28,0,0,0,4.31-4.24m0-23.7a4.28,4.28,0,0,0-4.31-4.24,4.27,4.27,0,0,0-4.3,4.24,4.27,4.27,0,0,0,4.3,4.24,4.27,4.27,0,0,0,4.31-4.24m-24,71.1A4.28,4.28,0,0,0-45.53,450a4.27,4.27,0,0,0-4.3,4.24,4.27,4.27,0,0,0,4.3,4.24,4.28,4.28,0,0,0,4.31-4.24m0-23.7a4.28,4.28,0,0,0-4.31-4.24,4.27,4.27,0,0,0-4.3,4.24,4.27,4.27,0,0,0,4.3,4.24,4.28,4.28,0,0,0,4.31-4.24m0-23.7a4.28,4.28,0,0,0-4.31-4.24,4.27,4.27,0,0,0-4.3,4.24,4.27,4.27,0,0,0,4.3,4.24,4.28,4.28,0,0,0,4.31-4.24m0-23.7a4.28,4.28,0,0,0-4.31-4.24,4.27,4.27,0,0,0-4.3,4.24,4.27,4.27,0,0,0,4.3,4.24,4.27,4.27,0,0,0,4.31-4.24m-24,71.1A4.28,4.28,0,0,0-69.58,450a4.27,4.27,0,0,0-4.3,4.24,4.27,4.27,0,0,0,4.3,4.24,4.28,4.28,0,0,0,4.31-4.24m0-23.7a4.28,4.28,0,0,0-4.31-4.24,4.27,4.27,0,0,0-4.3,4.24,4.27,4.27,0,0,0,4.3,4.24,4.28,4.28,0,0,0,4.31-4.24m0-23.7a4.28,4.28,0,0,0-4.31-4.24,4.27,4.27,0,0,0-4.3,4.24,4.27,4.27,0,0,0,4.3,4.24,4.28,4.28,0,0,0,4.31-4.24m0-23.7a4.28,4.28,0,0,0-4.31-4.24,4.27,4.27,0,0,0-4.3,4.24,4.27,4.27,0,0,0,4.3,4.24,4.27,4.27,0,0,0,4.31-4.24" style="fill: #fff"/>
                </g>
              </g>
            </g>
            <g>
              <g style="clip-path: url(#clip-path-9)">
                <g style="clip-path: url(#clip-path-10)">
                  <path d="M52.68,594.64a4.3,4.3,0,1,1-4.3-4.24,4.27,4.27,0,0,1,4.3,4.24m19.75-4.24a4.24,4.24,0,1,0,4.3,4.24,4.27,4.27,0,0,0-4.3-4.24m24,0a4.24,4.24,0,1,0,4.3,4.24,4.27,4.27,0,0,0-4.3-4.24m24,0a4.24,4.24,0,1,0,4.3,4.24,4.27,4.27,0,0,0-4.3-4.24m24.05,0a4.24,4.24,0,1,0,4.3,4.24,4.28,4.28,0,0,0-4.3-4.24m4.3-19.46a4.31,4.31,0,1,0-4.3,4.24,4.27,4.27,0,0,0,4.3-4.24m0-23.7a4.31,4.31,0,1,0-4.3,4.24,4.27,4.27,0,0,0,4.3-4.24m0-23.69a4.31,4.31,0,1,0-4.3,4.23,4.27,4.27,0,0,0,4.3-4.23m0-23.7a4.31,4.31,0,1,0-4.3,4.24,4.27,4.27,0,0,0,4.3-4.24m-24,71.09a4.3,4.3,0,1,0-4.3,4.24,4.27,4.27,0,0,0,4.3-4.24m0-23.7a4.3,4.3,0,1,0-4.3,4.24,4.27,4.27,0,0,0,4.3-4.24m0-23.69a4.3,4.3,0,1,0-4.3,4.23,4.27,4.27,0,0,0,4.3-4.23m0-23.7a4.3,4.3,0,1,0-4.3,4.24,4.27,4.27,0,0,0,4.3-4.24m-24,71.09a4.3,4.3,0,1,0-4.3,4.24,4.27,4.27,0,0,0,4.3-4.24m0-23.7a4.3,4.3,0,1,0-4.3,4.24,4.27,4.27,0,0,0,4.3-4.24m0-23.69a4.3,4.3,0,1,0-4.3,4.23,4.27,4.27,0,0,0,4.3-4.23m0-23.7a4.3,4.3,0,1,0-4.3,4.24,4.27,4.27,0,0,0,4.3-4.24m-24,71.09a4.3,4.3,0,1,0-4.3,4.24,4.27,4.27,0,0,0,4.3-4.24m0-23.7a4.3,4.3,0,1,0-4.3,4.24,4.27,4.27,0,0,0,4.3-4.24m0-23.69a4.3,4.3,0,1,0-4.3,4.23,4.27,4.27,0,0,0,4.3-4.23m0-23.7a4.3,4.3,0,1,0-4.3,4.24,4.27,4.27,0,0,0,4.3-4.24M52.68,570.94a4.3,4.3,0,1,0-4.3,4.24,4.27,4.27,0,0,0,4.3-4.24m0-23.7a4.3,4.3,0,1,0-4.3,4.24,4.27,4.27,0,0,0,4.3-4.24m0-23.69a4.3,4.3,0,1,0-4.3,4.23,4.27,4.27,0,0,0,4.3-4.23m0-23.7a4.3,4.3,0,1,0-4.3,4.24,4.27,4.27,0,0,0,4.3-4.24" style="fill: #fff"/>
                </g>
              </g>
              <g style="clip-path: url(#clip-path-11)">
                <g style="clip-path: url(#clip-path-12)">
                  <path d="M-65.27,594.64a4.28,4.28,0,0,1-4.31,4.24,4.27,4.27,0,0,1-4.3-4.24,4.27,4.27,0,0,1,4.3-4.24,4.28,4.28,0,0,1,4.31,4.24m19.74-4.24a4.27,4.27,0,0,0-4.3,4.24,4.27,4.27,0,0,0,4.3,4.24,4.28,4.28,0,0,0,4.31-4.24,4.28,4.28,0,0,0-4.31-4.24m24.05,0a4.27,4.27,0,0,0-4.3,4.24,4.27,4.27,0,0,0,4.3,4.24,4.28,4.28,0,0,0,4.31-4.24,4.28,4.28,0,0,0-4.31-4.24m24.05,0a4.24,4.24,0,1,0,0,8.48,4.24,4.24,0,1,0,0-8.48m24.05,0a4.24,4.24,0,1,0,4.3,4.24,4.27,4.27,0,0,0-4.3-4.24m4.3-19.46a4.3,4.3,0,1,0-4.3,4.24,4.27,4.27,0,0,0,4.3-4.24m0-23.7a4.3,4.3,0,1,0-4.3,4.24,4.27,4.27,0,0,0,4.3-4.24m0-23.69a4.3,4.3,0,1,0-4.3,4.23,4.26,4.26,0,0,0,4.3-4.23m0-23.7a4.3,4.3,0,1,0-4.3,4.24,4.26,4.26,0,0,0,4.3-4.24m-24,71.09a4.27,4.27,0,0,0-4.3-4.24,4.24,4.24,0,1,0,0,8.48,4.27,4.27,0,0,0,4.3-4.24m0-23.7A4.27,4.27,0,0,0,2.57,543a4.24,4.24,0,1,0,0,8.48,4.26,4.26,0,0,0,4.3-4.24m0-23.69a4.26,4.26,0,0,0-4.3-4.24,4.24,4.24,0,1,0,0,8.47,4.26,4.26,0,0,0,4.3-4.23m0-23.7a4.26,4.26,0,0,0-4.3-4.24,4.24,4.24,0,1,0,0,8.48,4.27,4.27,0,0,0,4.3-4.24m-24,71.09a4.28,4.28,0,0,0-4.31-4.24,4.27,4.27,0,0,0-4.3,4.24,4.27,4.27,0,0,0,4.3,4.24,4.28,4.28,0,0,0,4.31-4.24m0-23.7A4.28,4.28,0,0,0-21.48,543a4.27,4.27,0,0,0-4.3,4.24,4.27,4.27,0,0,0,4.3,4.24,4.27,4.27,0,0,0,4.31-4.24m0-23.69a4.27,4.27,0,0,0-4.31-4.24,4.27,4.27,0,0,0-4.3,4.24,4.27,4.27,0,0,0,4.3,4.23,4.27,4.27,0,0,0,4.31-4.23m0-23.7a4.27,4.27,0,0,0-4.31-4.24,4.27,4.27,0,0,0-4.3,4.24,4.27,4.27,0,0,0,4.3,4.24,4.28,4.28,0,0,0,4.31-4.24m-24,71.09a4.28,4.28,0,0,0-4.31-4.24,4.27,4.27,0,0,0-4.3,4.24,4.27,4.27,0,0,0,4.3,4.24,4.28,4.28,0,0,0,4.31-4.24m0-23.7A4.28,4.28,0,0,0-45.53,543a4.27,4.27,0,0,0-4.3,4.24,4.27,4.27,0,0,0,4.3,4.24,4.27,4.27,0,0,0,4.31-4.24m0-23.69a4.27,4.27,0,0,0-4.31-4.24,4.27,4.27,0,0,0-4.3,4.24,4.27,4.27,0,0,0,4.3,4.23,4.27,4.27,0,0,0,4.31-4.23m0-23.7a4.27,4.27,0,0,0-4.31-4.24,4.27,4.27,0,0,0-4.3,4.24,4.27,4.27,0,0,0,4.3,4.24,4.28,4.28,0,0,0,4.31-4.24m-24,71.09a4.28,4.28,0,0,0-4.31-4.24,4.27,4.27,0,0,0-4.3,4.24,4.27,4.27,0,0,0,4.3,4.24,4.28,4.28,0,0,0,4.31-4.24m0-23.7A4.28,4.28,0,0,0-69.58,543a4.27,4.27,0,0,0-4.3,4.24,4.27,4.27,0,0,0,4.3,4.24,4.27,4.27,0,0,0,4.31-4.24m0-23.69a4.27,4.27,0,0,0-4.31-4.24,4.27,4.27,0,0,0-4.3,4.24,4.27,4.27,0,0,0,4.3,4.23,4.27,4.27,0,0,0,4.31-4.23m0-23.7a4.27,4.27,0,0,0-4.31-4.24,4.27,4.27,0,0,0-4.3,4.24,4.27,4.27,0,0,0,4.3,4.24,4.28,4.28,0,0,0,4.31-4.24" style="fill: #fff"/>
                </g>
              </g>
            </g>
          </g>
          <path d="M1212.91,730.48a5.76,5.76,0,1,0,5.76,5.76A5.76,5.76,0,0,0,1212.91,730.48Zm32.19,0a5.76,5.76,0,1,0,5.76,5.76A5.76,5.76,0,0,0,1245.1,730.48Zm5.76-26.43a5.76,5.76,0,1,0-5.76,5.75A5.76,5.76,0,0,0,1250.86,704.05Zm0-32.2a5.76,5.76,0,1,0-5.76,5.76A5.76,5.76,0,0,0,1250.86,671.85Zm0-32.2a5.76,5.76,0,1,0-5.76,5.76A5.76,5.76,0,0,0,1250.86,639.65Zm0-32.19a5.76,5.76,0,1,0-5.76,5.76A5.76,5.76,0,0,0,1250.86,607.46Zm-32.19,96.59a5.76,5.76,0,1,0-5.76,5.75A5.76,5.76,0,0,0,1218.67,704.05Zm0-32.2a5.76,5.76,0,1,0-5.76,5.76A5.76,5.76,0,0,0,1218.67,671.85Zm0-32.2a5.76,5.76,0,1,0-5.76,5.76A5.76,5.76,0,0,0,1218.67,639.65Zm0-32.19a5.76,5.76,0,1,0-5.76,5.76A5.76,5.76,0,0,0,1218.67,607.46Z" style="fill: #c8312d;mix-blend-mode: multiply;opacity: 0.44"/>
          <g>
            <circle cx="30.38" cy="650.41" r="141.02" style="mix-blend-mode: screen;fill: url(#_ÂÁ_Ï_ÌÌ_È_ËÂÌÚ_2)"/>
            <circle cx="1374.9" cy="366.51" r="162.31" transform="translate(143.54 1079.55) rotate(-45)" style="mix-blend-mode: multiply;opacity: 0.32;fill: url(#_ÂÁ_Ï_ÌÌ_È_ËÂÌÚ_2-2)"/>
            <circle cx="124.88" cy="46.05" r="46.71" transform="translate(31.18 140.58) rotate(-65.5)" style="mix-blend-mode: multiply;fill: url(#_ÂÁ_Ï_ÌÌ_È_ËÂÌÚ_2-3)"/>
          </g>
        </g>
      </g>
    </g>
  </g>
</svg>
