<svg id="Layer_1" data-name="Layer 1" xmlns="http://www.w3.org/2000/svg" width="330" height="66.98" viewBox="0 0 330 66.98"><defs><style>.cls-1{fill:#3e3934;}.cls-2{fill:#c6c4c3;}.cls-3{fill:#afadae;}.cls-4{fill:#5d6567;}.cls-5{fill:#c5332c;}</style></defs><path class="cls-1" d="M66.78,49V14.19H82.54c4.7,0,7.86.82,9.5,2.46s2.45,4.81,2.45,9.5-.78,7.75-2.34,9.28-4.71,2.29-9.46,2.29l-1.52,0H73.4V49ZM73.4,32.22h7.51q4.45,0,5.66-1c.8-.69,1.2-2.33,1.2-4.9q0-4.44-1-5.5c-.67-.7-2.4-1.06-5.2-1.06H73.4Z"/><path class="cls-1" d="M109.12,49V14.19h17.15c4.27,0,7.22.74,8.83,2.21s2.43,4.15,2.43,8q0,5.26-1.22,7.2t-5,2.67v.23c3.87.23,5.8,2.49,5.8,6.75V49h-6.62V42.6c0-3.6-1.76-5.39-5.29-5.39h-9.48V49Zm6.62-17.28h9.46c2.26,0,3.76-.41,4.5-1.22s1.11-2.42,1.11-4.85-.32-4.08-1-4.81-2-1.08-4.19-1.08h-9.92Z"/><path class="cls-1" d="M167.59,13.89q9.48,0,12.2,3.15t2.73,14.06q0,12-2.74,15c-1.83,2.07-6.24,3.11-13.26,3.11q-9.47,0-12.25-3.07T151.5,32.68q0-12.42,2.72-15.61T167.59,13.89Zm-.51,5.63q-6.63,0-7.75,1.71t-1.12,11.84q0,7.5,1.31,9t7.72,1.53c4.08,0,6.53-.58,7.34-1.72s1.22-4.63,1.22-10.45-.39-9.28-1.16-10.34S171.35,19.52,167.08,19.52Z"/><path class="cls-1" d="M197.43,49V14.19h15.76c4.7,0,7.86.82,9.5,2.46s2.45,4.81,2.45,9.5-.78,7.75-2.34,9.28-4.71,2.29-9.45,2.29l-1.53,0h-7.77V49Zm6.62-16.74h7.51q4.45,0,5.66-1c.8-.69,1.21-2.33,1.21-4.9,0-3-.34-4.79-1-5.5s-2.4-1.06-5.21-1.06h-8.17Z"/><path class="cls-1" d="M263.6,36.56h6.62v1.2q0,7.25-2.65,9.37t-11.71,2.13q-10.28,0-12.64-3.36t-2.37-18q0-8.59,3.2-11.32t13.42-2.71q7.42,0,9.92,2.23t2.5,8.84l0,.79h-6.63v-.9c0-2.27-.43-3.73-1.28-4.37s-2.81-1-5.86-1q-6.12,0-7.35,1.51c-.82,1-1.23,4-1.23,8.92q0,10,1.1,11.84t7.17,1.84q4.91,0,6.37-1c1-.68,1.46-2.18,1.46-4.49Z"/><path class="cls-1" d="M299.22,13.89q9.48,0,12.2,3.15t2.73,14.06q0,12-2.74,15t-13.25,3.11q-9.48,0-12.26-3.07t-2.77-13.51q0-12.42,2.73-15.61T299.22,13.89Zm-.5,5.63c-4.43,0-7,.57-7.76,1.71s-1.11,5.09-1.11,11.84q0,7.5,1.31,9t7.71,1.53c4.08,0,6.53-.58,7.34-1.72s1.22-4.63,1.22-10.45-.38-9.28-1.15-10.34S303,19.52,298.72,19.52Z"/><path class="cls-1" d="M324.56,17.23a4.1,4.1,0,0,1,4.09,4.24,4,4,0,0,1-4,4.19,4.22,4.22,0,0,1-.06-8.43Zm.06-1.07A5.3,5.3,0,1,0,330,21.44,5.33,5.33,0,0,0,324.62,16.16Zm-.83,3.54a3,3,0,0,1,.67-.06c.78,0,1.13.32,1.13.81s-.55.77-1.22.77h-.58Zm0,2.39h.58c.68,0,1,.25,1.1.8a4.09,4.09,0,0,0,.42,1.29h1.28a5,5,0,0,1-.38-1.29c-.16-.71-.42-1.12-.94-1.29v-.06a1.36,1.36,0,0,0,1.1-1.26,1.32,1.32,0,0,0-.55-1.12,2.77,2.77,0,0,0-1.8-.42,13.51,13.51,0,0,0-2,.16v5.28h1.22Z"/><path class="cls-2" d="M35.31,33a7.66,7.66,0,0,0,3.07-4.76,14.82,14.82,0,0,0,.51-4.34,14.84,14.84,0,0,0-.51-4.35,7.66,7.66,0,0,0-3.07-4.76l.22-.38c.46,0,2.92,2,4,4.11a11.69,11.69,0,0,1,1.21,5.38,11.67,11.67,0,0,1-1.21,5.37c-1.07,2.07-3.53,4.15-4,4.11Z"/><path class="cls-3" d="M41.72,33a7.74,7.74,0,0,0,3.08-4.76,15.19,15.19,0,0,0,.5-4.34,15.22,15.22,0,0,0-.5-4.35,7.74,7.74,0,0,0-3.08-4.76l.22-.38c.46,0,2.92,2,4,4.11a11.68,11.68,0,0,1,1.2,5.38,11.67,11.67,0,0,1-1.2,5.37c-1.08,2.07-3.54,4.15-4,4.11Z"/><path class="cls-4" d="M48.13,33a7.74,7.74,0,0,0,3.08-4.76,15.19,15.19,0,0,0,.5-4.34,15.22,15.22,0,0,0-.5-4.35,7.74,7.74,0,0,0-3.08-4.76l.22-.38c.47,0,2.92,2,4,4.11a11.69,11.69,0,0,1,1.21,5.38,11.67,11.67,0,0,1-1.21,5.37c-1.08,2.07-3.53,4.15-4,4.11Z"/><path class="cls-5" d="M22,0C9.41,0,1-.65.93,15c0,5.88,23.73-.34,16.57,14.87-1.1,2.34-9.79.12-12.7,2.16C-.13,35.53-1,44.47.94,49.82,4.79,60.67,27.37,51.68,27.29,67c5.84-4.81,4.53-12.13,4.56-18.76-6.17.27-16,2.58-16.15-5.48C15.55,33.8,25.88,39.27,30.36,33c3.72-5.19,2.66-20.49-6.24-20.54C12.4,12.42,17.08,6.82,22,0"/></svg>