<svg id="Layer_1" data-name="Layer 1" xmlns="http://www.w3.org/2000/svg" viewBox="0 0 208.84 42.39">
  <g>
    <path d="M46.45,20.39H51.2c1.88,0,3.08-.22,3.58-.66s.77-1.47.77-3.1c0-1.87-.22-3-.64-3.48s-1.52-.67-3.29-.67H46.45ZM42.26,31V9h10q4.45,0,6,1.56t1.56,6c0,2.95-.5,4.9-1.48,5.87s-3,1.45-6,1.45l-1,0H46.45V31Z" style="fill: #fff"/>
    <path d="M73.25,20.05h6a3.9,3.9,0,0,0,2.85-.77,4.75,4.75,0,0,0,.7-3.07,5.06,5.06,0,0,0-.6-3,3.63,3.63,0,0,0-2.66-.69H73.25ZM69.06,31V9H79.91c2.7,0,4.57.47,5.59,1.4S87,13,87,15.45c0,2.22-.25,3.74-.77,4.56a4.56,4.56,0,0,1-3.15,1.69v.14q3.67.22,3.67,4.28V31H82.59V27c0-2.28-1.11-3.41-3.34-3.41h-6V31Z" style="fill: #fff"/>
    <path d="M105.74,12.36c-2.8,0-4.44.36-4.91,1.08s-.7,3.22-.7,7.49c0,3.16.27,5.07.82,5.71s2.18,1,4.88,1,4.14-.36,4.65-1.09.77-2.93.77-6.61-.24-5.87-.73-6.55-2.08-1-4.78-1m.32-3.57c4,0,6.57.67,7.72,2s1.72,4.3,1.72,8.9c0,5-.57,8.22-1.73,9.53s-4,2-8.39,2c-4,0-6.58-.64-7.75-1.94s-1.76-4.14-1.76-8.55q0-7.86,1.73-9.87t8.46-2" style="fill: #fff"/>
    <path d="M129.13,20.39h4.76c1.88,0,3.07-.22,3.58-.66s.76-1.47.76-3.1q0-2.8-.63-3.48c-.43-.45-1.52-.67-3.29-.67h-5.18ZM124.94,31V9h10q4.46,0,6,1.56t1.55,6c0,2.95-.49,4.9-1.48,5.87s-3,1.45-6,1.45l-1,0h-4.92V31Z" style="fill: #fff"/>
    <path d="M166.82,23.14H171v.75c0,3.07-.56,5-1.68,5.94s-3.59,1.34-7.41,1.34c-4.34,0-7-.71-8-2.12s-1.5-5.21-1.5-11.38q0-5.45,2-7.16t8.49-1.72c3.13,0,5.23.47,6.28,1.41s1.58,2.8,1.58,5.59v.5h-4.19v-.56c0-1.44-.27-2.37-.81-2.77s-1.78-.6-3.7-.6c-2.59,0-4.14.31-4.66,1s-.78,2.52-.78,5.65c0,4.22.23,6.71.7,7.49s2,1.16,4.53,1.16c2.07,0,3.42-.22,4-.65s.92-1.37.92-2.84Z" style="fill: #fff"/>
    <path d="M189,12.36c-2.8,0-4.43.36-4.9,1.08s-.71,3.22-.71,7.49c0,3.16.28,5.07.83,5.71s2.17,1,4.88,1,4.13-.36,4.64-1.09.78-2.93.78-6.61-.25-5.87-.74-6.55-2.08-1-4.78-1m.32-3.57c4,0,6.57.67,7.72,2s1.73,4.3,1.73,8.9q0,7.56-1.73,9.53t-8.39,2c-4,0-6.59-.64-7.76-1.94s-1.75-4.14-1.75-8.55q0-7.86,1.72-9.87t8.46-2" style="fill: #fff"/>
    <path d="M204.89,14h.36c.43,0,.63.16.69.51a2.92,2.92,0,0,0,.27.81H207a2.92,2.92,0,0,1-.24-.81c-.1-.45-.26-.72-.59-.82v0a.85.85,0,0,0,.35-1.51,1.83,1.83,0,0,0-1.15-.26,9.21,9.21,0,0,0-1.28.1V15.3h.78Zm0-1.51a1.82,1.82,0,0,1,.42,0c.49,0,.72.2.72.51s-.35.49-.78.49h-.36Zm.53-2.24a3.35,3.35,0,1,0,3.4,3.34,3.38,3.38,0,0,0-3.4-3.34m-.05.67A2.6,2.6,0,0,1,208,13.59a2.56,2.56,0,0,1-2.54,2.65,2.6,2.6,0,0,1-2.61-2.67,2.6,2.6,0,0,1,2.56-2.67" style="fill: #fff"/>
    <path d="M22.35,20.9a4.89,4.89,0,0,0,1.94-3,9.36,9.36,0,0,0,.32-2.75,9.44,9.44,0,0,0-.32-2.75,4.9,4.9,0,0,0-1.94-3l.13-.24A6.48,6.48,0,0,1,25,11.73a7.41,7.41,0,0,1,.77,3.4A7.42,7.42,0,0,1,25,18.54a6.48,6.48,0,0,1-2.53,2.6Z" style="fill: #fff"/>
    <path d="M26.4,20.9a4.88,4.88,0,0,0,2-3,9.71,9.71,0,0,0,.32-2.75,9.8,9.8,0,0,0-.32-2.75,4.89,4.89,0,0,0-2-3l.14-.24a6.55,6.55,0,0,1,2.53,2.6,7.41,7.41,0,0,1,.77,3.4,7.42,7.42,0,0,1-.77,3.41,6.55,6.55,0,0,1-2.53,2.6Z" style="fill: #fff"/>
    <path d="M30.46,20.9a4.88,4.88,0,0,0,1.95-3,9.71,9.71,0,0,0,.32-2.75,9.8,9.8,0,0,0-.32-2.75,4.89,4.89,0,0,0-1.95-3l.14-.24a6.55,6.55,0,0,1,2.53,2.6,7.4,7.4,0,0,1,.76,3.4,7.42,7.42,0,0,1-.76,3.41,6.55,6.55,0,0,1-2.53,2.6Z" style="fill: #fff"/>
    <path d="M13.94,0C6,0,.65-.41.59,9.52c0,3.72,15-.22,10.49,9.41-.7,1.48-6.2.08-8,1.37C-.08,22.48-.61,28.14.59,31.53,3,38.4,17.32,32.71,17.27,42.39c3.7-3,2.86-7.68,2.89-11.87-3.91.17-10.14,1.63-10.23-3.47-.09-5.66,6.45-2.2,9.28-6.15,2.36-3.28,1.69-13-3.94-13-7.42,0-4.46-3.59-1.33-7.9" style="fill: #fff"/>
  </g>
</svg>
