<?xml version="1.0" encoding="UTF-8"?>
<svg width="23px" height="22px" viewBox="0 0 23 22" version="1.1" xmlns="http://www.w3.org/2000/svg" xmlns:xlink="http://www.w3.org/1999/xlink">
    <title>Group 36</title>
    <g id="Symbols" stroke="none" stroke-width="1" fill="none" fill-rule="evenodd">
        <g id="switch-UI" transform="translate(-6.000000, -5.000000)" fill="#000000" fill-rule="nonzero">
            <g id="Group-35" transform="translate(6.000000, 5.000000)">
                <g id="Group-34" transform="translate(1.095238, 0.000000)">
                    <path d="M8.42665723,16.6291039 C8.15832872,16.344513 7.7244358,16.344513 7.45610728,16.6291039 C7.18777877,16.9136948 7.18777877,17.3738843 7.45610728,17.6584752 L8.23254724,18.4819722 L5.08111446,18.4819722 C3.03154132,18.4819722 1.37018817,16.7138757 1.37018817,14.5461408 L1.37018817,12.1059254 C1.37018817,11.7062871 1.06189583,11.3793103 0.685094084,11.3793103 C0.308292338,11.3793103 0,11.7062871 0,12.1059254 L0,14.5461408 C0,17.5192073 2.27793783,19.9352023 5.08111446,19.9352023 L8.23254724,19.9352023 L7.45610728,20.7586993 C7.18777877,21.0432902 7.18777877,21.5034797 7.45610728,21.7880706 C7.58741698,21.9273385 7.76439962,22 7.94138226,22 C8.1183649,22 8.28963842,21.9273385 8.42665723,21.7880706 L10.3734663,19.7232729 C10.6417948,19.438682 10.6417948,18.9784925 10.3734663,18.6939016 L8.42665723,16.6291039 Z" id="Path"></path>
                    <path d="M16.8179383,2.06601701 L13.6665055,2.06601701 L14.4429455,1.24263734 C14.711274,0.95808701 14.711274,0.497963075 14.4429455,0.213412746 C14.174617,-0.0711375821 13.7407241,-0.0711375821 13.4723956,0.213412746 L11.5312956,2.27791619 C11.2629671,2.56246652 11.2629671,3.02259046 11.5312956,3.30714079 L13.4781047,5.37164423 C13.6094144,5.51089227 13.786397,5.58354341 13.9633796,5.58354341 C14.1403623,5.58354341 14.3116358,5.51089227 14.4486546,5.37164423 C14.7169831,5.0870939 14.7169831,4.62696997 14.4486546,4.34241964 L13.6722147,3.51903997 L16.8236474,3.51903997 C18.8732206,3.51903997 20.5345737,5.28688456 20.5345737,7.45431047 L20.5345737,9.89417818 C20.5345737,10.2937595 20.8428661,10.6206897 21.2196678,10.6206897 C21.5964696,10.6206897 21.9047619,10.2937595 21.9047619,9.89417818 L21.9047619,7.45431047 C21.9047619,4.48166767 19.621115,2.06601701 16.8179383,2.06601701 Z" id="Path"></path>
                    <g id="Group-32" transform="translate(12.840722, 12.896552)">
                        <path d="M8.24003583,7.44827586 C8.02030154,7.44827586 7.80743395,7.53793103 7.65636662,7.68965517 C7.5052993,7.84137931 7.41603224,8.05517241 7.41603224,8.27586207 C7.41603224,8.48965517 7.5052993,8.71034483 7.65636662,8.86206897 C7.80743395,9.0137931 8.02030154,9.10344828 8.24003583,9.10344828 C8.45977011,9.10344828 8.67263771,9.0137931 8.82370503,8.86206897 C8.97477235,8.71034483 9.06403941,8.49655172 9.06403941,8.27586207 C9.06403941,8.05517241 8.97477235,7.84137931 8.82370503,7.68965517 C8.66577101,7.53793103 8.45290342,7.44827586 8.24003583,7.44827586 Z" id="Path"></path>
                        <path d="M3.29601433,7.44827586 C2.84281236,7.44827586 2.47201075,7.82068966 2.47201075,8.27586207 C2.47201075,8.73103448 2.84281236,9.10344828 3.29601433,9.10344828 C3.7492163,9.10344828 4.12001791,8.73103448 4.12001791,8.27586207 C4.12001791,7.82068966 3.756083,7.44827586 3.29601433,7.44827586 Z" id="Path"></path>
                        <path d="M5.76802508,7.44827586 C5.31482311,7.44827586 4.9440215,7.82068966 4.9440215,8.27586207 C4.9440215,8.73103448 5.31482311,9.10344828 5.76802508,9.10344828 C6.22122705,9.10344828 6.59202866,8.73103448 6.59202866,8.27586207 C6.59202866,7.82068966 6.22122705,7.44827586 5.76802508,7.44827586 Z" id="Path"></path>
                        <path d="M0.824003583,7.44827586 C0.604269294,7.44827586 0.391401702,7.53793103 0.240334378,7.68965517 C0.0892670548,7.84137931 0,8.05517241 0,8.27586207 C0,8.48965517 0.0892670548,8.71034483 0.240334378,8.86206897 C0.391401702,9.0137931 0.604269294,9.10344828 0.824003583,9.10344828 C1.03687117,9.10344828 1.25660546,9.0137931 1.40767279,8.86206897 C1.55874011,8.71034483 1.64800717,8.49655172 1.64800717,8.27586207 C1.64800717,8.05517241 1.55874011,7.84137931 1.40767279,7.68965517 C1.25660546,7.53793103 1.03680251,7.44827586 0.824003583,7.44827586 Z" id="Path"></path>
                        <path d="M0.824003583,4.96551724 C0.370801612,4.96551724 0,5.33793103 0,5.79310345 C0,6.24827586 0.370801612,6.62068966 0.824003583,6.62068966 C1.27720555,6.62068966 1.64800717,6.24827586 1.64800717,5.79310345 C1.64800717,5.33793103 1.27713689,4.96551724 0.824003583,4.96551724 Z" id="Path"></path>
                        <path d="M0.824003583,2.48275862 C0.370801612,2.48275862 0,2.85517241 0,3.31034483 C0,3.76551724 0.370801612,4.13793103 0.824003583,4.13793103 C1.27720555,4.13793103 1.64800717,3.76551724 1.64800717,3.31034483 C1.64800717,2.85517241 1.27713689,2.48275862 0.824003583,2.48275862 Z" id="Path"></path>
                        <path d="M0.824003583,0 C0.604269294,0 0.391401702,0.0896551724 0.240334378,0.24137931 C0.0892670548,0.393103448 0,0.606896552 0,0.827586207 C0,1.04827586 0.0892670548,1.26206897 0.240334378,1.4137931 C0.391401702,1.56551724 0.604269294,1.65517241 0.824003583,1.65517241 C1.03687117,1.65517241 1.25660546,1.56551724 1.40767279,1.4137931 C1.55874011,1.26206897 1.64800717,1.04827586 1.64800717,0.827586207 C1.64800717,0.613793103 1.55874011,0.393103448 1.40767279,0.24137931 C1.2496701,0.0827586207 1.03680251,0 0.824003583,0 Z" id="Path"></path>
                        <path d="M5.76802508,0 C5.31482311,0 4.9440215,0.372413793 4.9440215,0.827586207 C4.9440215,1.28275862 5.31482311,1.65517241 5.76802508,1.65517241 C6.22122705,1.65517241 6.59202866,1.28275862 6.59202866,0.827586207 C6.59202866,0.372413793 6.22122705,0 5.76802508,0 Z" id="Path"></path>
                        <path d="M3.29601433,0 C2.84281236,0 2.47201075,0.372413793 2.47201075,0.827586207 C2.47201075,1.28275862 2.84281236,1.65517241 3.29601433,1.65517241 C3.7492163,1.65517241 4.12001791,1.28275862 4.12001791,0.827586207 C4.12001791,0.372413793 3.756083,0 3.29601433,0 Z" id="Path"></path>
                        <path d="M8.24003583,0 C8.02030154,0 7.80743395,0.0896551724 7.65636662,0.24137931 C7.5052993,0.393103448 7.41603224,0.606896552 7.41603224,0.827586207 C7.41603224,1.04827586 7.5052993,1.26206897 7.65636662,1.4137931 C7.80743395,1.56551724 8.02030154,1.65517241 8.24003583,1.65517241 C8.45977011,1.65517241 8.67263771,1.56551724 8.82370503,1.4137931 C8.97477235,1.26206897 9.06403941,1.04827586 9.06403941,0.827586207 C9.06403941,0.613793103 8.97477235,0.393103448 8.82370503,0.24137931 C8.66577101,0.0896551724 8.45290342,0 8.24003583,0 Z" id="Path"></path>
                        <path d="M8.24003583,2.48275862 C7.78683386,2.48275862 7.41603224,2.85517241 7.41603224,3.31034483 C7.41603224,3.76551724 7.78683386,4.13793103 8.24003583,4.13793103 C8.6932378,4.13793103 9.06403941,3.76551724 9.06403941,3.31034483 C9.06403941,2.85517241 8.6932378,2.48275862 8.24003583,2.48275862 Z" id="Path"></path>
                    </g>
                </g>
                <path d="M10.3579505,0 L0.594430445,0 C0.2674937,0 0,0.268656716 0,0.597014925 L0,10.4029851 C0,10.7313433 0.2674937,11 0.594430445,11 L10.3579505,11 C10.6848873,11 10.952381,10.7313433 10.952381,10.4029851 L10.952381,0.597014925 C10.952381,0.268656716 10.6898408,0 10.3579505,0 Z M9.49206349,9.42857143 L1.46031746,9.42857143 L1.46031746,1.57142857 L9.49206349,1.57142857 L9.49206349,9.42857143 Z" id="Shape"></path>
                <path d="M22.452381,18.7 C22.1511905,18.7 21.9047619,18.9475 21.9047619,19.25 C21.9047619,19.5525 22.1511905,19.8 22.452381,19.8 C22.7535714,19.8 23,19.5525 23,19.25 C23,18.9475 22.7535714,18.7 22.452381,18.7 Z" id="Path"></path>
            </g>
        </g>
    </g>
</svg>