<?xml version="1.0" encoding="UTF-8"?>
<!-- Generator: Adobe Illustrator 16.0.0, SVG Export Plug-In . SVG Version: 6.00 Build 0)  -->
<!DOCTYPE svg PUBLIC "-//W3C//DTD SVG 1.1//EN" "http://www.w3.org/Graphics/SVG/1.1/DTD/svg11.dtd">
<svg version="1.1" id="Layer_1" xmlns="http://www.w3.org/2000/svg" xmlns:xlink="http://www.w3.org/1999/xlink" x="0px" y="0px" width="340.16px" height="137.58px" viewBox="0 0 340.16 137.58" enable-background="new 0 0 340.16 137.58" xml:space="preserve">
<g>
	<defs>
		<rect id="SVGID_1_" width="340.16" height="170.08"/>
	</defs>
	<clipPath id="SVGID_2_">
		<use xlink:href="#SVGID_1_" overflow="visible"/>
	</clipPath>
	<path clip-path="url(#SVGID_2_)" fill="#F58025" d="M277.075,71.94c-5.446,0-8.734,4.883-8.734,9.767h17.278   C285.434,76.917,282.804,71.94,277.075,71.94 M268.623,89.689c0.187,6.573,5.633,11.176,12.492,11.176   c4.225,0,7.699-1.033,11.548-3.099l2.724,7.23c-4.978,3.476-10.895,4.884-16.15,4.884c-15.496,0-22.07-11.27-22.07-23.195   c0-12.679,7.514-23.197,20.191-23.197c12.021,0,19.907,9.11,19.907,22.914v3.287H268.623z"/>
	<path clip-path="url(#SVGID_2_)" fill="#F58025" d="M316.802,109.881c-8.64,0-11.74-4.414-11.74-10.426V72.974h-7.888v-8.452h7.888   V53.865l11.271-3.429v14.086H327.4v8.452h-11.068V95.7c0,3.476,1.314,5.071,4.226,5.071c2.817,0,5.06-1.103,6.843-1.947v8.84   C323.925,109.881,321.215,109.881,316.802,109.881"/>
	<rect x="7.496" y="119.012" clip-path="url(#SVGID_2_)" fill="#00447C" width="209.523" height="8.646"/>
	<rect x="224.297" y="119.01" clip-path="url(#SVGID_2_)" fill="#F58025" width="103.104" height="8.648"/>
	<polygon clip-path="url(#SVGID_2_)" fill="#00447C" points="48.629,46.995 48.629,73.666 15.854,73.666 15.854,46.995    7.496,46.995 7.496,108.883 15.854,108.883 15.854,80.803 48.629,80.803 48.629,108.883 56.893,108.883 56.893,46.995  "/>
	<path clip-path="url(#SVGID_2_)" fill="#00447C" d="M97.277,86.625c0-9.579-4.694-16.434-12.49-16.434   c-7.888,0-12.584,6.855-12.584,16.434c0,9.485,4.696,16.34,12.49,16.34C92.583,102.965,97.277,96.11,97.277,86.625 M63.658,86.625   c0-13.147,8.358-23.29,21.129-23.29c12.584,0,21.036,10.143,21.036,23.29c0,13.055-8.357,23.197-21.13,23.197   C72.016,109.822,63.658,99.68,63.658,86.625"/>
	<path clip-path="url(#SVGID_2_)" fill="#00447C" d="M110.521,64.462h6.95l0.939,5.446c4.601-3.756,9.672-6.573,15.307-6.573   c5.165,0,9.392,2.442,11.552,7.419c5.258-4.695,10.893-7.419,16.34-7.419c7.324,0,13.617,4.507,13.617,15.777v29.771h-8.264v-27.33   c0-6.104-1.315-10.893-7.419-10.893c-4.415,0-8.734,2.63-12.584,5.916c0,0.752,0.093,1.596,0.093,2.348v29.958h-8.263V81.648   c0-6.199-1.315-10.988-7.42-10.988c-4.413,0-8.733,2.63-12.583,5.916v32.307h-8.265V64.462z"/>
	<path clip-path="url(#SVGID_2_)" fill="#00447C" d="M208.477,82.306c-0.188-6.198-3.191-12.397-9.86-12.397   c-6.388,0-10.237,5.635-10.331,12.397H208.477z M179.834,86.343c0-13.523,7.419-23.007,18.782-23.007   c11.646,0,18.406,8.922,18.406,23.102v2.066h-28.737c0.187,8.356,5.258,14.555,14.086,14.555c4.227,0,7.891-1.314,10.989-3.004   l2.63,5.729c-4.133,2.629-9.58,4.037-14.651,4.037C186.595,109.82,179.834,99.021,179.834,86.343"/>
	<polygon clip-path="url(#SVGID_2_)" fill="#F58025" points="224.297,108.883 224.297,50.424 235.658,46.995 235.658,99.303    257.821,99.303 257.821,108.883  "/>
	<polygon clip-path="url(#SVGID_2_)" fill="#F58025" points="334.613,29.816 275.877,12.001 217.086,29.837 217.086,42.431    275.882,24.595 334.613,42.411  "/>
</g>
</svg>