<svg xmlns="http://www.w3.org/2000/svg" viewBox="0 0 141.6 40"><path fill-rule="evenodd" clip-rule="evenodd" fill="#cf3229" d="M141.6 13.2"/><path fill-rule="evenodd" clip-rule="evenodd" fill="#9D9D9C" d="M10.9 37.8H2v-19c-0.1 0-0.3 0-0.5 0c-0.2 0-0.3 0-0.5 0c-0.2 0-0.4 0-0.6 0c-0.2 0-0.3 0-0.4 0v20.9h10.9c0-0.1 0-0.3 0-0.4c0-0.2 0-0.3 0-0.5c0-0.1 0-0.3 0-0.5C10.9 38.1 10.9 37.9 10.9 37.8z"/><path fill-rule="evenodd" clip-rule="evenodd" fill="#9D9D9C" d="M22.7 26.4c-0.5-0.6-1.1-1-1.9-1.4c-0.8-0.3-1.6-0.5-2.6-0.5c-1.2 0-2.2 0.2-3 0.6c-0.8 0.4-1.5 1-2 1.7c-0.5 0.7-0.9 1.5-1.2 2.5c-0.3 0.9-0.4 2-0.4 3c0 1.1 0.1 2.2 0.4 3.1c0.3 0.9 0.7 1.7 1.3 2.4c0.6 0.7 1.3 1.2 2.3 1.6c0.9 0.4 2 0.6 3.3 0.6c0.9 0 1.7-0.1 2.5-0.2c0.8-0.1 1.4-0.3 2-0.6c0-0.3-0.1-0.5-0.1-0.8c-0.1-0.3-0.1-0.6-0.2-0.8c-0.6 0.2-1.2 0.4-1.8 0.5c-0.6 0.1-1.3 0.2-2 0.2c-1.8 0-3.2-0.5-4.1-1.4c-0.9-0.9-1.4-2.4-1.4-4.4h10.6c0-0.2 0-0.4 0-0.7c0-0.3 0-0.5 0-0.7c0-1-0.1-1.9-0.4-2.7C23.6 27.7 23.3 27 22.7 26.4z M13.7 30.9c0.2-1.5 0.6-2.7 1.4-3.5c0.8-0.8 1.8-1.2 3.2-1.2c0.7 0 1.4 0.1 1.9 0.4c0.5 0.3 0.9 0.6 1.3 1.1c0.3 0.4 0.6 0.9 0.7 1.5c0.2 0.6 0.2 1.2 0.2 1.8H13.7z"/><path fill-rule="evenodd" clip-rule="evenodd" fill="#9D9D9C" d="M31.8 38.3c-0.3 0-0.5 0-0.8-0.1c-0.3 0-0.5-0.1-0.7-0.3c-0.2-0.2-0.4-0.4-0.5-0.7c-0.1-0.3-0.2-0.7-0.2-1.1v-9.6h4c0-0.1 0-0.2 0-0.4c0-0.2 0-0.3 0-0.5c0-0.2 0-0.3 0-0.4c0-0.1 0-0.3 0-0.3h-4v-4.6h-0.1l-1.8 1.8v2.8h-2.5c0 0.1 0 0.2 0 0.3c0 0.1 0 0.3 0 0.4c0 0.2 0 0.3 0 0.5c0 0.2 0 0.3 0 0.4h2.5v9.7c0 1.3 0.3 2.3 1 2.9c0.7 0.6 1.6 0.9 2.7 0.9c0.9 0 1.7-0.1 2.4-0.3c-0.1-0.6-0.2-1.1-0.3-1.6C33.1 38.2 32.5 38.3 31.8 38.3z"/><path fill-rule="evenodd" clip-rule="evenodd" fill="#9D9D9C" d="M99.4 12.2l-0.9 2.6c20.6-1.4 44.6 4.1 39.4 14.6C145.2 19.4 130.5 12.3 99.4 12.2z"/><polyline fill-rule="evenodd" clip-rule="evenodd" fill="#cf3229" points="125.8,10.2 129.9,10.2 129.9,15.9 125.8,14.7"/><path fill-rule="evenodd" clip-rule="evenodd" fill="#cf3229" d="M43.3 19l-7 20.7h3.6l1.7-5.5h7.3l1.7 5.5h3.8L47.1 19H43.3z M42.4 31.3l2.8-8.8l2.7 8.8H42.4z"/><rect x="56.2" y="18.1" fill-rule="evenodd" clip-rule="evenodd" fill="#cf3229" width="3.5" height="21.6"/><rect x="63" y="18.1" fill-rule="evenodd" clip-rule="evenodd" fill="#cf3229" width="3.5" height="21.6"/><path fill-rule="evenodd" clip-rule="evenodd" fill="#cf3229" d="M71.2 18.5c-0.8 0-1.3 0.2-1.6 0.5c-0.3 0.3-0.5 0.8-0.5 1.4c0 0.6 0.2 1.1 0.5 1.4c0.3 0.3 0.9 0.5 1.6 0.5c0.8 0 1.3-0.2 1.6-0.5c0.3-0.3 0.5-0.8 0.5-1.4c0-0.6-0.2-1.1-0.5-1.4C72.5 18.7 72 18.5 71.2 18.5z"/><rect x="69.4" y="24.6" fill-rule="evenodd" clip-rule="evenodd" fill="#cf3229" width="3.5" height="15.1"/><path fill-rule="evenodd" clip-rule="evenodd" fill="#cf3229" d="M86.6 25.6c-0.6-0.5-1.3-0.8-2.1-1c-0.8-0.2-1.7-0.3-2.7-0.3c-0.7 0-1.5 0.1-2.3 0.2c-0.8 0.1-1.5 0.3-2.1 0.4l-0.4 2.7c0.7-0.2 1.3-0.3 2-0.4C79.6 27 80.3 27 81 27c1.4 0 2.4 0.3 3 0.8c0.6 0.5 1 1.4 1 2.7v1c-0.4-0.4-0.9-0.7-1.6-0.9c-0.6-0.2-1.3-0.3-2.2-0.3c-0.9 0-1.6 0.1-2.3 0.2c-0.7 0.2-1.3 0.4-1.8 0.8c-0.5 0.4-0.9 0.9-1.1 1.5c-0.3 0.6-0.4 1.3-0.4 2.2v0.3c0 0.9 0.1 1.6 0.4 2.1c0.2 0.6 0.6 1.1 1 1.4c0.5 0.4 1 0.6 1.6 0.8c0.6 0.2 1.3 0.2 2.1 0.2c1 0 1.9-0.1 2.7-0.4c0.7-0.3 1.3-0.7 1.8-1.4l0.3 1.5h3v-9.7c0-1-0.2-1.8-0.5-2.6C87.6 26.6 87.2 26.1 86.6 25.6z M85 34.9c0 0.7-0.3 1.3-0.8 1.7c-0.5 0.4-1.3 0.6-2.4 0.6c-1 0-1.7-0.2-2.2-0.5c-0.5-0.3-0.7-0.9-0.7-1.6v-0.2c0-0.7 0.2-1.3 0.6-1.6c0.4-0.4 1.1-0.5 2-0.5h0.5c1 0 1.7 0.2 2.2 0.5c0.5 0.3 0.7 0.8 0.7 1.5V34.9z"/><path fill-rule="evenodd" clip-rule="evenodd" fill="#cf3229" d="M103.1 25.5c-0.5-0.4-1.1-0.8-1.7-1c-0.7-0.2-1.4-0.3-2.2-0.3c-1 0-1.9 0.2-2.6 0.5c-0.8 0.3-1.4 0.8-1.9 1.5l-0.2-1.6h-3.1v15.1h3.5v-8.8c0-1.3 0.3-2.3 0.8-2.9c0.5-0.6 1.4-0.9 2.5-0.9c1 0 1.8 0.3 2.2 0.8c0.4 0.5 0.7 1.4 0.7 2.6v9.2h3.5V29.5c0-0.9-0.1-1.7-0.4-2.3C103.9 26.5 103.5 26 103.1 25.5z"/><path fill-rule="evenodd" clip-rule="evenodd" fill="#cf3229" d="M111 28c0.6-0.7 1.7-1 3.2-1c0.6 0 1.1 0 1.5 0.1c0.5 0.1 0.9 0.2 1.3 0.3l0.6-2.6c-0.6-0.2-1.2-0.3-1.8-0.4c-0.7-0.1-1.4-0.2-2.1-0.2c-1.3 0-2.3 0.2-3.2 0.5c-0.9 0.3-1.6 0.8-2.2 1.4c-0.6 0.6-1 1.4-1.3 2.2c-0.3 0.9-0.4 1.8-0.4 2.9v1.5c0 1.1 0.1 2 0.3 2.9c0.2 0.9 0.6 1.6 1.1 2.2c0.5 0.6 1.2 1.1 2.1 1.5c0.9 0.3 2 0.5 3.3 0.5c0.7 0 1.3 0 1.9-0.1c0.6-0.1 1.2-0.2 1.9-0.4l0.4-2.6c-0.5 0.1-1 0.2-1.5 0.2c-0.5 0.1-1.1 0.1-1.6 0.1c-1.6 0-2.7-0.3-3.4-1c-0.7-0.7-1-1.9-1-3.5v-1.2C110.1 29.8 110.4 28.7 111 28z"/><path fill-rule="evenodd" clip-rule="evenodd" fill="#cf3229" d="M130.7 26.1c-0.5-0.6-1.1-1-1.9-1.4c-0.8-0.3-1.8-0.5-3-0.5c-1.2 0-2.2 0.2-3.1 0.5c-0.9 0.3-1.6 0.8-2.1 1.5c-0.6 0.6-1 1.4-1.2 2.3c-0.3 0.9-0.4 1.9-0.4 3v1.2c0 1.2 0.1 2.2 0.4 3.1c0.2 0.9 0.6 1.7 1.2 2.3c0.6 0.6 1.3 1.1 2.2 1.4c0.9 0.3 2.1 0.5 3.4 0.5c0.4 0 0.9 0 1.3 0c0.4 0 0.9-0.1 1.3-0.1c0.4-0.1 0.8-0.1 1.2-0.2c0.4-0.1 0.7-0.2 0.9-0.3l0.5-2.5c-0.8 0.2-1.5 0.3-2.1 0.3c-0.6 0.1-1.2 0.1-1.9 0.1c-0.9 0-1.7-0.1-2.3-0.2c-0.6-0.1-1.1-0.4-1.5-0.7c-0.4-0.3-0.6-0.7-0.8-1.2c-0.2-0.5-0.3-1.2-0.3-1.9h7.9c0.3 0 0.6 0 0.8-0.1c0.2 0 0.4-0.1 0.5-0.2c0.1-0.1 0.2-0.3 0.3-0.5c0-0.2 0.1-0.5 0.1-0.9v-1.2c0-0.8-0.1-1.5-0.3-2.3C131.5 27.4 131.2 26.7 130.7 26.1z M128.7 30.8h-6.3c0-1.4 0.3-2.4 0.8-3c0.5-0.6 1.3-0.9 2.4-0.9c1.1 0 1.9 0.3 2.3 0.8c0.5 0.6 0.7 1.4 0.7 2.5V30.8z"/><path fill-rule="evenodd" clip-rule="evenodd" fill="#cf3229" d="M107.6 17.7l-0.6 1.9c14.7-1 31.9 3 28.2 10.4C140.4 22.9 129.9 17.8 107.6 17.7z"/><polygon fill-rule="evenodd" clip-rule="evenodd" fill="#cf3229" points="125.2,0 109.4,12.5 112,12.7 125.2,2 134.9,9.7 134.9,18 136.6,19.1 136.6,11.1 139.2,13.2 141.6,13.2"/></svg>