<svg id="Layer_1" data-name="Layer 1" xmlns="http://www.w3.org/2000/svg" width="168.58" height="168.58" viewBox="0 0 168.58 168.58"><defs><style>.cls-1,.cls-2,.cls-3{fill:none;}.cls-1{opacity:0.11;}.cls-2{stroke:#3a3b3a;stroke-width:6px;}.cls-2,.cls-3{stroke-linecap:square;stroke-linejoin:round;}.cls-3{stroke:#c62f2e;stroke-width:5px;}</style></defs><circle class="cls-1" cx="84.29" cy="84.29" r="84.29"/><line class="cls-2" x1="58.57" y1="130.79" x2="58.57" y2="122.87"/><line class="cls-3" x1="52.63" y1="47.69" x2="72.42" y2="47.69"/><line class="cls-3" x1="54.61" y1="67.47" x2="54.61" y2="55.6"/><line class="cls-3" x1="70.44" y1="67.47" x2="70.44" y2="55.6"/><line class="cls-3" x1="62.53" y1="79.34" x2="62.53" y2="55.6"/><path class="cls-3" d="M42.73,87.26V47.69a9.9,9.9,0,0,1,19.8,0"/><line class="cls-2" x1="36.8" y1="87.26" x2="131.78" y2="87.26"/><path class="cls-2" d="M125.83,87.26V111A11.86,11.86,0,0,1,114,122.87H54.6A11.88,11.88,0,0,1,42.73,111V87.26"/><line class="cls-2" x1="110.01" y1="130.79" x2="110.01" y2="122.87"/></svg>
