<svg id="svg" version="1.1" xmlns="http://www.w3.org/2000/svg" xmlns:xlink="http://www.w3.org/1999/xlink" width="400" height="399.4318181818182" viewBox="0, 0, 400,399.4318181818182"><g id="svgg"><path id="path0" d="M188.478 160.107 C 188.074 160.511,188.157 230.569,188.561 230.569 C 188.754 230.569,189.018 231.103,189.148 231.756 C 189.507 233.550,193.341 236.563,195.264 236.563 C 195.561 236.563,195.804 236.729,195.804 236.931 C 195.804 237.134,196.344 237.418,197.003 237.562 C 197.662 237.707,198.202 237.972,198.202 238.150 C 198.202 238.329,198.651 238.588,199.201 238.726 C 199.750 238.863,200.200 239.129,200.200 239.316 C 200.200 239.503,201.009 239.883,201.998 240.160 C 202.987 240.437,203.796 240.805,203.796 240.979 C 203.796 241.153,204.336 241.414,204.995 241.558 C 205.654 241.703,206.194 241.957,206.194 242.123 C 206.194 242.289,207.767 243.219,209.690 244.189 C 211.613 245.160,213.247 246.089,213.320 246.254 C 213.393 246.419,213.636 246.553,213.860 246.553 C 214.513 246.553,218.981 248.690,218.981 249.002 C 218.981 249.159,219.520 249.406,220.180 249.550 C 220.839 249.695,221.379 249.979,221.379 250.182 C 221.379 250.384,221.601 250.549,221.872 250.549 C 222.405 250.549,226.643 252.577,226.973 252.989 C 227.083 253.126,227.622 253.377,228.172 253.546 C 228.721 253.716,229.270 254.007,229.390 254.194 C 230.245 255.515,231.983 254.971,232.967 253.074 C 233.516 252.015,234.081 251.059,234.222 250.949 C 234.362 250.839,234.705 249.985,234.984 249.051 C 235.263 248.117,235.608 247.353,235.751 247.353 C 236.444 247.353,237.419 244.155,236.878 243.657 C 235.818 242.680,224.708 236.963,223.871 236.963 C 223.599 236.963,223.377 236.787,223.377 236.571 C 223.377 236.355,222.927 236.066,222.378 235.928 C 221.828 235.790,221.379 235.517,221.379 235.321 C 221.379 235.125,221.168 234.965,220.910 234.965 C 220.388 234.965,213.702 231.737,213.387 231.333 C 213.277 231.192,212.737 230.938,212.188 230.769 C 211.638 230.600,211.099 230.350,210.989 230.214 C 210.879 230.077,209.710 229.428,208.392 228.770 C 207.073 228.112,205.339 227.179,204.539 226.697 C 203.739 226.214,202.975 225.929,202.841 226.063 C 202.707 226.197,202.597 226.097,202.597 225.841 C 202.597 225.584,202.328 225.375,201.998 225.375 C 201.470 225.375,201.399 221.467,201.399 192.607 L 201.399 159.840 195.072 159.840 C 191.592 159.840,188.625 159.960,188.478 160.107 " stroke="none" fill="#c4342c" fill-rule="evenodd"></path><path id="path1" d="M208.091 66.647 C 207.267 67.464,206.407 68.312,206.181 68.531 C 205.954 68.751,199.330 75.405,191.461 83.317 L 177.152 97.704 176.879 99.767 C 176.240 104.577,175.575 103.712,194.373 122.522 C 203.683 131.838,211.587 139.461,211.938 139.461 C 212.633 139.461,222.577 129.729,222.577 129.049 C 222.577 128.820,217.812 123.869,211.988 118.048 C 206.164 112.227,201.399 107.381,201.399 107.279 C 201.399 107.177,203.197 107.093,205.395 107.093 C 207.592 107.093,209.391 107.237,209.391 107.412 C 209.391 107.588,211.857 107.955,214.871 108.227 C 217.885 108.499,220.448 108.868,220.565 109.046 C 220.683 109.224,221.851 109.493,223.162 109.643 C 224.472 109.794,225.641 110.073,225.759 110.264 C 225.877 110.455,226.830 110.739,227.877 110.896 C 228.924 111.053,229.873 111.332,229.988 111.517 C 230.102 111.702,231.268 112.064,232.580 112.322 C 233.892 112.580,234.965 112.948,234.965 113.139 C 234.965 113.330,235.245 113.487,235.586 113.487 C 235.928 113.487,237.007 113.851,237.984 114.296 C 238.961 114.741,240.300 115.213,240.959 115.345 C 241.618 115.477,242.158 115.727,242.158 115.902 C 242.158 116.077,242.697 116.339,243.357 116.484 C 244.016 116.628,244.555 116.898,244.555 117.083 C 244.555 117.268,245.095 117.538,245.754 117.682 C 246.414 117.827,246.953 118.083,246.953 118.250 C 246.953 118.418,247.672 118.770,248.551 119.034 C 249.431 119.297,250.150 119.685,250.150 119.896 C 250.150 120.107,250.392 120.280,250.688 120.280 C 250.984 120.280,251.641 120.639,252.148 121.079 C 252.655 121.518,253.312 121.878,253.608 121.878 C 253.904 121.878,254.146 122.040,254.146 122.239 C 254.146 122.437,254.685 122.787,255.345 123.017 C 256.004 123.247,256.543 123.624,256.543 123.855 C 256.543 124.087,256.718 124.276,256.931 124.276 C 257.503 124.276,262.138 127.526,262.138 127.928 C 262.138 128.117,262.380 128.272,262.675 128.272 C 262.971 128.272,263.538 128.631,263.936 129.071 C 264.334 129.510,264.838 129.870,265.057 129.870 C 265.275 129.870,266.034 130.455,266.744 131.169 C 267.454 131.883,268.536 132.827,269.148 133.267 C 269.761 133.706,270.457 134.278,270.695 134.537 C 271.786 135.721,276.542 140.526,277.194 141.102 C 278.181 141.972,279.321 143.399,279.321 143.763 C 279.321 143.927,279.950 144.585,280.719 145.227 C 281.489 145.868,282.118 146.603,282.118 146.861 C 282.118 147.118,282.478 147.654,282.917 148.052 C 283.357 148.450,283.716 148.920,283.716 149.097 C 283.716 149.273,284.174 149.920,284.734 150.533 C 285.969 151.886,287.712 154.537,287.712 155.063 C 287.712 155.273,287.901 155.445,288.133 155.445 C 288.364 155.445,288.741 155.984,288.971 156.643 C 289.201 157.303,289.551 157.842,289.749 157.842 C 289.948 157.842,290.110 158.099,290.110 158.413 C 290.110 158.727,290.356 159.230,290.657 159.531 C 290.957 159.831,291.329 160.473,291.483 160.958 C 291.636 161.442,291.901 161.838,292.071 161.838 C 292.241 161.838,292.617 162.557,292.907 163.437 C 293.197 164.316,293.571 165.035,293.739 165.035 C 293.906 165.035,294.161 165.574,294.306 166.234 C 294.451 166.893,294.726 167.433,294.919 167.433 C 295.111 167.433,295.387 168.062,295.531 168.831 C 295.675 169.600,295.936 170.230,296.111 170.230 C 296.286 170.230,296.660 171.129,296.942 172.228 C 297.223 173.327,297.580 174.226,297.733 174.226 C 297.887 174.226,298.131 174.855,298.275 175.624 C 298.420 176.394,298.686 177.023,298.866 177.023 C 299.047 177.023,299.401 177.967,299.654 179.121 C 300.251 181.852,300.278 181.947,300.572 182.418 C 300.709 182.637,300.949 183.671,301.105 184.715 C 301.262 185.759,301.531 186.613,301.704 186.613 C 301.878 186.613,302.149 187.737,302.307 189.111 C 302.464 190.485,302.732 191.698,302.901 191.808 C 303.205 192.006,304.000 198.625,304.162 202.298 C 304.208 203.342,304.399 204.196,304.587 204.196 C 305.524 204.196,303.908 231.117,302.932 231.759 C 302.758 231.874,302.491 232.928,302.338 234.101 C 302.186 235.274,301.902 236.533,301.707 236.898 C 301.512 237.263,301.155 238.372,300.913 239.361 C 300.672 240.350,300.392 241.429,300.292 241.758 C 300.192 242.088,299.893 243.257,299.627 244.356 C 299.361 245.455,299.022 246.444,298.873 246.553 C 298.724 246.663,298.475 247.338,298.320 248.052 C 298.165 248.766,297.907 249.351,297.746 249.351 C 297.585 249.351,297.223 250.250,296.942 251.349 C 296.660 252.448,296.286 253.347,296.111 253.347 C 295.936 253.347,295.675 253.976,295.531 254.745 C 295.387 255.514,295.111 256.144,294.919 256.144 C 294.726 256.144,294.451 256.683,294.306 257.343 C 294.161 258.002,293.891 258.541,293.706 258.541 C 293.520 258.541,293.148 259.211,292.878 260.029 C 292.608 260.847,292.189 261.740,291.948 262.013 C 290.770 263.345,290.523 263.744,290.283 264.701 C 290.140 265.269,289.885 265.734,289.715 265.734 C 289.546 265.734,289.184 266.274,288.911 266.933 C 288.638 267.592,288.257 268.132,288.063 268.132 C 287.870 268.132,287.712 268.393,287.712 268.711 C 287.712 269.030,287.487 269.435,287.212 269.611 C 286.937 269.786,286.443 270.470,286.113 271.129 C 285.422 272.513,285.180 272.842,283.417 274.796 C 282.702 275.588,282.118 276.437,282.118 276.684 C 282.118 276.930,281.578 277.577,280.919 278.122 C 280.260 278.667,279.720 279.274,279.720 279.472 C 279.720 279.865,268.374 291.309,267.985 291.309 C 267.854 291.309,267.126 291.893,266.366 292.607 C 264.435 294.424,262.800 295.693,262.383 295.699 C 262.189 295.702,261.613 296.154,261.104 296.703 C 260.595 297.253,259.999 297.702,259.779 297.702 C 259.560 297.702,259.237 297.938,259.061 298.225 C 258.885 298.513,258.157 298.984,257.443 299.273 C 256.728 299.561,256.144 299.943,256.144 300.121 C 256.144 300.300,255.739 300.572,255.245 300.726 C 254.750 300.881,254.256 301.117,254.146 301.253 C 253.815 301.660,251.621 302.908,250.450 303.355 C 249.845 303.586,249.351 303.922,249.351 304.103 C 249.351 304.284,248.811 304.550,248.152 304.695 C 247.493 304.840,246.953 305.124,246.953 305.326 C 246.953 305.529,246.755 305.694,246.513 305.694 C 245.798 305.694,241.359 307.831,241.359 308.175 C 241.359 308.349,240.949 308.492,240.449 308.492 C 239.948 308.492,239.184 308.736,238.750 309.034 C 238.317 309.332,237.018 309.800,235.864 310.073 C 234.710 310.346,233.766 310.725,233.766 310.915 C 233.766 311.105,232.867 311.380,231.768 311.526 C 230.669 311.672,229.770 311.937,229.770 312.115 C 229.770 312.293,228.919 312.566,227.879 312.722 C 226.838 312.878,225.437 313.236,224.765 313.517 C 224.092 313.798,222.381 314.154,220.962 314.309 C 219.543 314.463,218.191 314.740,217.957 314.924 C 217.724 315.108,215.791 315.380,213.661 315.530 C 211.532 315.680,209.790 315.956,209.790 316.143 C 209.790 316.330,205.385 316.484,200.000 316.484 C 194.615 316.484,190.210 316.330,190.210 316.143 C 190.210 315.956,188.463 315.680,186.329 315.529 C 184.194 315.379,182.351 315.107,182.233 314.924 C 182.115 314.741,180.759 314.460,179.221 314.299 C 177.682 314.138,175.881 313.781,175.218 313.506 C 174.555 313.231,173.162 312.878,172.121 312.722 C 171.081 312.566,170.230 312.281,170.230 312.088 C 170.230 311.895,169.421 311.616,168.432 311.468 C 167.443 311.319,166.633 311.067,166.633 310.907 C 166.633 310.747,165.644 310.395,164.436 310.125 C 163.227 309.854,162.238 309.486,162.238 309.307 C 162.238 309.127,161.608 308.862,160.839 308.718 C 160.070 308.573,159.441 308.304,159.441 308.118 C 159.441 307.933,158.811 307.663,158.042 307.519 C 157.273 307.375,156.643 307.108,156.643 306.927 C 156.643 306.746,155.834 306.371,154.845 306.094 C 153.856 305.817,153.047 305.434,153.047 305.243 C 153.047 305.052,152.842 304.895,152.592 304.895 C 152.341 304.895,151.262 304.357,150.194 303.700 C 149.126 303.043,148.252 302.606,148.252 302.730 C 148.252 302.853,147.969 302.672,147.624 302.326 C 147.278 301.981,146.739 301.698,146.425 301.698 C 146.111 301.698,145.854 301.522,145.854 301.306 C 145.854 301.091,145.405 300.801,144.855 300.664 C 144.306 300.526,143.856 300.248,143.856 300.047 C 143.856 299.845,143.407 299.510,142.857 299.301 C 142.308 299.092,141.858 298.737,141.858 298.511 C 141.858 298.286,141.625 298.102,141.340 298.102 C 140.773 298.102,139.336 297.102,138.327 296.004 C 137.974 295.619,137.464 295.305,137.194 295.305 C 136.924 295.305,136.559 295.057,136.383 294.754 C 136.208 294.451,135.409 293.762,134.609 293.223 C 133.808 292.683,132.709 291.762,132.165 291.176 C 131.622 290.590,131.043 290.110,130.880 290.110 C 130.499 290.110,121.878 281.469,121.878 281.087 C 121.878 280.929,121.294 280.219,120.579 279.509 C 119.865 278.800,118.921 277.718,118.482 277.105 C 118.042 276.493,117.458 275.765,117.183 275.487 C 116.908 275.209,116.683 274.798,116.683 274.574 C 116.683 274.349,116.400 274.007,116.055 273.814 C 115.434 273.467,114.709 272.388,113.913 270.629 C 113.689 270.135,113.322 269.730,113.097 269.730 C 112.872 269.730,112.687 269.469,112.687 269.151 C 112.687 268.832,112.452 268.427,112.164 268.252 C 111.877 268.076,111.405 267.348,111.117 266.633 C 110.828 265.919,110.454 265.335,110.285 265.335 C 110.115 265.335,109.864 264.885,109.726 264.336 C 109.588 263.786,109.299 263.337,109.083 263.337 C 108.868 263.337,108.691 263.080,108.691 262.766 C 108.691 262.452,108.449 261.952,108.152 261.656 C 107.856 261.359,107.380 260.402,107.095 259.529 C 106.811 258.656,106.469 257.852,106.336 257.742 C 106.203 257.632,105.644 256.643,105.095 255.544 C 104.545 254.446,103.961 253.487,103.796 253.413 C 103.631 253.340,103.494 252.980,103.490 252.614 C 103.484 251.931,102.687 249.465,102.242 248.751 C 102.104 248.531,101.867 247.767,101.714 247.053 C 101.560 246.339,101.294 245.754,101.122 245.754 C 100.949 245.754,100.577 244.630,100.294 243.257 C 100.012 241.883,99.628 240.561,99.441 240.319 C 99.255 240.077,98.987 239.043,98.847 238.022 C 98.707 237.000,98.456 236.164,98.288 236.164 C 98.120 236.164,97.857 234.905,97.702 233.367 C 97.548 231.828,97.289 230.569,97.128 230.569 C 96.765 230.569,95.893 221.732,95.900 218.106 C 95.902 216.635,95.724 215.321,95.504 215.185 C 95.270 215.040,95.105 212.716,95.105 209.567 L 95.105 204.196 87.712 204.196 L 80.320 204.196 80.320 213.586 C 80.320 219.580,80.464 222.977,80.719 222.977 C 80.939 222.977,81.120 223.831,81.122 224.875 C 81.124 225.919,81.320 228.302,81.557 230.170 C 81.795 232.038,81.985 233.881,81.979 234.266 C 81.973 234.650,82.118 234.965,82.302 234.965 C 82.486 234.965,82.763 236.224,82.917 237.762 C 83.072 239.301,83.336 240.559,83.506 240.559 C 83.675 240.559,83.932 241.459,84.078 242.557 C 84.224 243.656,84.476 244.555,84.638 244.555 C 84.800 244.555,85.161 245.760,85.440 247.232 C 85.720 248.705,86.104 250.098,86.295 250.329 C 86.486 250.560,86.768 251.424,86.922 252.248 C 87.076 253.072,87.353 253.746,87.539 253.746 C 87.724 253.746,87.994 254.376,88.138 255.145 C 88.283 255.914,88.543 256.543,88.716 256.543 C 88.889 256.543,89.247 257.443,89.510 258.541 C 89.774 259.640,90.137 260.539,90.318 260.539 C 90.498 260.539,90.764 261.079,90.909 261.738 C 91.054 262.398,91.324 262.937,91.508 262.937 C 91.693 262.937,91.971 263.521,92.126 264.236 C 92.281 264.950,92.744 266.012,93.157 266.595 C 93.569 267.179,93.906 267.853,93.906 268.094 C 93.906 268.334,94.072 268.531,94.274 268.531 C 94.476 268.531,94.760 269.071,94.905 269.730 C 95.050 270.390,95.334 270.929,95.536 270.929 C 95.739 270.929,95.904 271.177,95.904 271.480 C 95.904 271.782,96.172 272.252,96.499 272.524 C 96.826 272.795,96.996 273.177,96.875 273.372 C 96.755 273.567,96.847 273.726,97.079 273.726 C 97.312 273.726,97.502 274.002,97.502 274.338 C 97.502 274.675,97.761 275.049,98.077 275.171 C 98.394 275.292,98.764 275.901,98.901 276.523 C 99.038 277.146,99.408 277.755,99.725 277.876 C 100.041 277.998,100.300 278.344,100.300 278.647 C 100.300 278.949,100.659 279.522,101.099 279.920 C 101.538 280.318,101.898 280.866,101.898 281.138 C 101.898 281.410,102.168 281.736,102.498 281.863 C 102.827 281.989,103.097 282.353,103.097 282.671 C 103.097 282.990,103.232 283.310,103.397 283.383 C 103.561 283.457,104.226 284.236,104.873 285.115 C 105.520 285.994,106.285 286.857,106.571 287.033 C 106.858 287.209,107.093 287.554,107.093 287.801 C 107.093 288.047,107.902 289.024,108.891 289.972 C 109.880 290.920,110.689 291.847,110.689 292.034 C 110.689 292.220,111.633 293.284,112.787 294.397 C 113.941 295.511,115.173 296.755,115.525 297.162 C 115.877 297.569,117.225 298.846,118.522 299.999 C 119.818 301.152,121.525 302.725,122.314 303.495 C 123.103 304.265,123.875 304.895,124.029 304.895 C 124.183 304.895,124.706 305.274,125.192 305.736 C 125.677 306.199,126.523 306.869,127.073 307.225 C 127.622 307.581,128.216 308.102,128.391 308.382 C 128.567 308.662,128.972 308.891,129.291 308.891 C 129.609 308.891,129.870 309.080,129.870 309.311 C 129.870 309.543,130.410 309.920,131.069 310.150 C 131.728 310.380,132.268 310.730,132.268 310.928 C 132.268 311.126,132.529 311.289,132.847 311.289 C 133.166 311.289,133.571 311.514,133.746 311.789 C 133.922 312.064,134.605 312.558,135.265 312.887 C 135.924 313.216,136.607 313.710,136.783 313.985 C 136.959 314.260,137.363 314.486,137.682 314.486 C 138.001 314.486,138.262 314.665,138.262 314.885 C 138.262 315.105,138.504 315.285,138.800 315.285 C 139.096 315.285,139.740 315.633,140.231 316.059 C 140.723 316.485,141.649 316.949,142.291 317.090 C 142.932 317.231,143.457 317.492,143.457 317.671 C 143.457 317.849,143.949 318.119,144.551 318.270 C 145.154 318.421,145.738 318.667,145.850 318.817 C 146.165 319.237,150.398 321.279,150.955 321.279 C 151.226 321.279,151.449 321.439,151.449 321.634 C 151.449 321.829,152.078 322.107,152.847 322.251 C 153.616 322.396,154.246 322.677,154.246 322.877 C 154.246 323.077,154.877 323.359,155.649 323.504 C 156.420 323.648,157.145 323.918,157.260 324.104 C 157.374 324.289,158.541 324.651,159.853 324.910 C 161.165 325.168,162.238 325.519,162.238 325.691 C 162.238 325.863,162.956 326.125,163.834 326.273 C 164.712 326.422,165.525 326.696,165.641 326.883 C 165.756 327.070,167.196 327.449,168.840 327.726 C 170.483 328.002,171.828 328.354,171.828 328.509 C 171.828 328.664,173.087 328.916,174.625 329.071 C 176.164 329.225,177.423 329.495,177.423 329.669 C 177.423 329.844,178.906 330.115,180.719 330.272 C 182.532 330.430,184.268 330.763,184.577 331.013 C 185.366 331.654,214.629 331.657,215.423 331.017 C 215.732 330.768,217.557 330.437,219.481 330.281 C 221.404 330.126,222.977 329.855,222.977 329.681 C 222.977 329.507,224.146 329.239,225.574 329.086 C 227.003 328.933,228.172 328.677,228.172 328.518 C 228.172 328.358,229.517 328.002,231.160 327.726 C 232.804 327.449,234.241 327.075,234.352 326.895 C 234.464 326.714,235.367 326.444,236.359 326.295 C 237.350 326.147,238.162 325.892,238.162 325.730 C 238.162 325.567,239.241 325.212,240.559 324.939 C 241.878 324.667,242.957 324.291,242.957 324.105 C 242.957 323.918,243.586 323.647,244.356 323.503 C 245.125 323.359,245.754 323.089,245.754 322.903 C 245.754 322.718,246.384 322.448,247.153 322.304 C 247.922 322.160,248.551 321.890,248.551 321.704 C 248.551 321.518,249.046 321.247,249.650 321.102 C 251.203 320.730,256.543 318.036,256.543 317.625 C 256.543 317.437,256.766 317.283,257.037 317.283 C 257.774 317.283,261.738 315.206,261.738 314.820 C 261.738 314.636,261.980 314.486,262.277 314.486 C 262.573 314.486,263.229 314.126,263.736 313.686 C 264.243 313.247,264.906 312.887,265.209 312.887 C 265.511 312.887,265.863 312.617,265.989 312.288 C 266.116 311.958,266.476 311.688,266.789 311.688 C 267.102 311.688,267.455 311.435,267.574 311.125 C 267.693 310.815,268.182 310.462,268.660 310.340 C 269.139 310.219,270.126 309.573,270.854 308.906 C 271.582 308.238,272.347 307.692,272.555 307.692 C 272.762 307.692,273.323 307.243,273.801 306.693 C 274.279 306.144,274.838 305.694,275.044 305.694 C 275.250 305.694,276.116 304.975,276.969 304.096 C 277.823 303.217,278.677 302.498,278.868 302.498 C 279.174 302.498,283.583 298.263,285.376 296.247 C 285.739 295.839,286.638 294.940,287.374 294.249 C 288.109 293.559,289.341 292.264,290.110 291.373 C 290.879 290.481,292.093 289.110,292.807 288.325 C 293.521 287.540,294.106 286.782,294.106 286.640 C 294.106 286.497,294.375 286.096,294.703 285.748 C 295.767 284.620,297.303 282.609,297.303 282.342 C 297.303 282.200,297.735 281.617,298.263 281.047 C 298.792 280.477,299.466 279.541,299.762 278.967 C 300.058 278.392,300.480 277.704,300.699 277.436 C 301.598 276.345,301.950 275.789,303.065 273.707 C 303.707 272.509,304.337 271.439,304.464 271.329 C 304.591 271.219,305.145 270.230,305.694 269.131 C 306.244 268.032,306.802 267.043,306.935 266.933 C 307.068 266.823,307.409 266.014,307.692 265.135 C 307.976 264.256,308.317 263.446,308.450 263.336 C 308.970 262.903,310.404 259.872,310.671 258.641 C 310.826 257.927,311.118 257.343,311.320 257.343 C 311.523 257.343,311.688 256.933,311.688 256.433 C 311.688 255.932,311.943 255.159,312.255 254.714 C 312.566 254.269,312.946 253.240,313.098 252.427 C 313.251 251.614,313.515 250.949,313.686 250.949 C 313.856 250.949,314.216 249.780,314.486 248.352 C 314.755 246.923,315.122 245.754,315.301 245.754 C 315.480 245.754,315.750 244.765,315.901 243.556 C 316.052 242.348,316.317 241.359,316.490 241.359 C 316.663 241.359,316.934 240.235,317.092 238.861 C 317.250 237.488,317.525 236.270,317.705 236.156 C 317.884 236.042,318.257 233.614,318.534 230.762 C 318.811 227.909,319.227 225.446,319.459 225.289 C 320.114 224.846,320.038 198.521,319.381 198.302 C 319.093 198.206,318.881 197.462,318.881 196.547 C 318.881 194.105,317.990 187.413,317.665 187.413 C 317.506 187.413,317.251 186.244,317.098 184.815 C 316.945 183.387,316.677 182.218,316.503 182.218 C 316.329 182.218,316.068 181.319,315.922 180.220 C 315.776 179.121,315.524 178.222,315.362 178.222 C 315.200 178.222,314.838 177.013,314.558 175.537 C 314.278 174.060,313.886 172.751,313.686 172.627 C 313.487 172.504,313.203 171.645,313.055 170.717 C 312.906 169.790,312.636 169.031,312.455 169.031 C 312.273 169.031,312.006 168.402,311.862 167.632 C 311.717 166.863,311.459 166.234,311.288 166.234 C 311.116 166.234,310.853 165.745,310.703 165.149 C 310.554 164.552,310.085 163.303,309.661 162.373 C 309.238 161.444,308.891 160.483,308.891 160.238 C 308.891 159.993,308.734 159.890,308.541 160.009 C 308.349 160.128,307.966 159.419,307.690 158.434 C 307.414 157.449,307.047 156.643,306.873 156.643 C 306.699 156.643,306.439 156.104,306.294 155.445 C 306.149 154.785,305.865 154.246,305.663 154.246 C 305.460 154.246,305.295 153.985,305.295 153.666 C 305.295 153.347,305.050 152.943,304.752 152.767 C 304.453 152.591,303.994 151.788,303.732 150.981 C 303.470 150.174,302.995 149.298,302.677 149.034 C 302.358 148.770,302.098 148.325,302.098 148.046 C 302.098 147.767,301.828 147.435,301.499 147.308 C 301.169 147.182,300.899 146.803,300.899 146.466 C 300.899 146.130,300.710 145.854,300.479 145.854 C 300.248 145.854,299.870 145.315,299.640 144.655 C 299.411 143.996,299.060 143.457,298.862 143.457 C 298.664 143.457,298.501 143.181,298.501 142.845 C 298.501 142.508,298.232 142.129,297.902 142.003 C 297.572 141.876,297.303 141.556,297.303 141.291 C 297.303 141.027,296.943 140.424,296.503 139.952 C 296.064 139.480,295.704 138.950,295.704 138.774 C 295.704 138.597,295.165 138.007,294.505 137.463 C 293.846 136.918,293.307 136.264,293.307 136.010 C 293.307 135.755,292.677 134.995,291.908 134.319 C 291.139 133.644,290.509 132.917,290.509 132.705 C 290.509 132.220,279.798 121.479,279.314 121.479 C 279.118 121.479,278.161 120.669,277.186 119.680 C 276.211 118.691,275.219 117.882,274.983 117.882 C 274.747 117.882,274.361 117.522,274.126 117.083 C 273.891 116.643,273.435 116.284,273.113 116.284 C 272.791 116.284,272.527 116.093,272.527 115.861 C 272.527 115.628,272.366 115.537,272.170 115.658 C 271.973 115.780,271.709 115.611,271.583 115.282 C 271.457 114.954,271.160 114.685,270.923 114.685 C 270.685 114.685,270.095 114.278,269.611 113.781 C 269.127 113.283,268.192 112.609,267.532 112.283 C 266.873 111.957,266.190 111.465,266.014 111.189 C 265.838 110.914,265.434 110.689,265.115 110.689 C 264.796 110.689,264.535 110.552,264.535 110.384 C 264.535 110.078,263.885 109.686,261.380 108.484 C 260.634 108.126,259.767 107.576,259.454 107.263 C 259.140 106.950,258.627 106.693,258.313 106.693 C 257.999 106.693,257.742 106.528,257.742 106.325 C 257.742 106.123,257.203 105.839,256.543 105.694 C 255.884 105.549,255.345 105.294,255.345 105.126 C 255.345 104.959,254.625 104.606,253.746 104.343 C 252.867 104.080,252.148 103.706,252.148 103.512 C 252.148 103.319,251.608 103.042,250.949 102.897 C 250.290 102.752,249.750 102.483,249.750 102.298 C 249.750 102.113,249.228 101.847,248.590 101.707 C 247.953 101.567,246.746 101.103,245.909 100.676 C 245.071 100.249,244.065 99.900,243.672 99.900 C 243.279 99.900,242.957 99.731,242.957 99.525 C 242.957 99.319,242.148 99.029,241.159 98.880 C 240.170 98.732,239.361 98.476,239.361 98.311 C 239.361 98.146,238.276 97.781,236.951 97.500 C 235.626 97.219,234.453 96.845,234.345 96.669 C 234.236 96.494,233.340 96.229,232.353 96.081 C 231.367 95.933,230.466 95.661,230.353 95.477 C 230.239 95.293,229.072 95.020,227.760 94.872 C 226.448 94.724,225.375 94.475,225.375 94.321 C 225.375 94.166,225.150 94.024,224.875 94.004 C 221.921 93.798,215.140 92.898,214.985 92.693 C 214.875 92.547,212.727 92.306,210.211 92.156 C 207.696 92.007,205.561 91.808,205.468 91.716 C 205.376 91.623,208.738 88.116,212.940 83.922 C 217.141 79.728,220.579 75.989,220.578 75.611 C 220.577 74.780,210.969 65.129,210.162 65.148 C 209.847 65.156,208.916 65.830,208.091 66.647 " stroke="none" fill="#3c3c3c" fill-rule="evenodd"></path><path id="path2" d="" stroke="none" fill="#c83834" fill-rule="evenodd"></path><path id="path3" d="" stroke="none" fill="#603834" fill-rule="evenodd"></path><path id="path4" d="" stroke="none" fill="#3c3840" fill-rule="evenodd"></path></g></svg>