<svg id="Layer_1" data-name="Layer 1" xmlns="http://www.w3.org/2000/svg" width="168.58" height="168.58" viewBox="0 0 168.58 168.58"><defs><style>.cls-1,.cls-2,.cls-3{fill:none;}.cls-1{opacity:0.11;}.cls-2{stroke:#c62f2e;}.cls-2,.cls-3{stroke-linejoin:round;stroke-width:6px;}.cls-3{stroke:#3a3b3a;}</style></defs><circle class="cls-1" cx="84.29" cy="85.65" r="84.29"/><path class="cls-2" d="M90.37,111.54c13.2-3,20.27-10.4,20.27-24.22,0-11.41-6.08-22.4-6.08-22.4-.71,6.88-4.9,9.53-8.34,11.29,8-21.3-5.34-34.76-12.21-38.67,0,0,2,14.55-12.16,28.6.33-10.13-5.28-13.91-5.28-13.91,1,10-8.63,22.36-8.63,37,0,13.86,8.08,20,18.24,22.3C76.18,111.54,81.09,113.63,90.37,111.54Z"/><line class="cls-3" x1="58.01" y1="131.04" x2="110.56" y2="131.04"/></svg>
