<svg xmlns="http://www.w3.org/2000/svg" xmlns:xlink="http://www.w3.org/1999/xlink" width="168.58" height="168.58" viewBox="0 0 168.58 168.58"><defs><style>.cls-1{fill:#ff941f;}.cls-2,.cls-3,.cls-4{fill:none;}.cls-2{stroke:#c6302d;stroke-linecap:square;stroke-width:5px;}.cls-2,.cls-3{stroke-linejoin:round;}.cls-3{stroke:#393a3a;stroke-width:6px;}.cls-4{opacity:0.11;}.cls-5{clip-path:url(#clip-path);}</style><clipPath id="clip-path"><circle class="cls-1" cx="601.48" cy="70.28" r="17.5"/></clipPath></defs><g id="Layer_2" data-name="Layer 2"><line class="cls-2" x1="108.12" y1="129.79" x2="134.13" y2="129.79"/><path class="cls-3" d="M110.29,94a9.75,9.75,0,0,0-19.5,0v35.75h13v-19.5C103.79,106,110.29,99.43,110.29,94Z"/><path class="cls-3" d="M34.46,94A9.75,9.75,0,0,1,54,94v35.75H41v-19.5C41,106,34.46,99.43,34.46,94Z"/><path class="cls-3" d="M99.46,84.29v-6.5c0-7.18-11.64-13-26-13s-26,5.82-26,13v6.5"/><path class="cls-3" d="M54,103.79c0-3.59,8.24-6.5,18.41-6.5s18.42,2.91,18.42,6.5"/><line class="cls-3" x1="53.96" y1="123.29" x2="90.79" y2="123.29"/><line class="cls-2" x1="118.96" y1="129.79" x2="118.96" y2="64.79"/><polygon class="cls-2" points="134.13 64.79 103.79 64.79 103.79 62.62 112.46 38.79 125.46 38.79 134.13 62.62 134.13 64.79"/><line class="cls-2" x1="127.63" y1="64.79" x2="127.63" y2="82.12"/><circle class="cls-4" cx="84.29" cy="84.29" r="84.29"/></g><g id="Layer_1" data-name="Layer 1"><circle class="cls-1" cx="601.48" cy="70.28" r="17.5"/></g></svg>