<svg id="Layer_1" data-name="Layer 1" xmlns="http://www.w3.org/2000/svg" width="168.58" height="168.58" viewBox="0 0 168.58 168.58"><defs><style>.cls-1,.cls-2{fill:none;}.cls-1{opacity:0.11;}.cls-2{stroke:#3a3b3a;stroke-linejoin:round;stroke-width:6px;}.cls-3{fill:#c6302e;}</style></defs><circle class="cls-1" cx="84.29" cy="84.29" r="84.29"/><circle class="cls-2" cx="84.29" cy="84.29" r="52.49"/><path class="cls-3" d="M81.27,97.43a1.64,1.64,0,0,1-1.62-1.72,23.83,23.83,0,0,1,1-6.39,12.28,12.28,0,0,1,2.87-4.87A23.32,23.32,0,0,1,88,81a13.88,13.88,0,0,0,2.83-2.28,10.28,10.28,0,0,0,2-3,9.77,9.77,0,0,0,.73-3.84,8.21,8.21,0,0,0-1.22-4.53,8.29,8.29,0,0,0-3.28-3,10,10,0,0,0-4.56-1,10.13,10.13,0,0,0-4.21.91,8,8,0,0,0-3.38,2.85,8.51,8.51,0,0,0-1.3,3.11,2.53,2.53,0,0,1-2.47,2H71.51a2.54,2.54,0,0,1-2.5-3,13.75,13.75,0,0,1,2-4.71,14.06,14.06,0,0,1,5.67-4.94,17.92,17.92,0,0,1,7.85-1.7,17,17,0,0,1,8.17,1.87,13.48,13.48,0,0,1,5.39,5.11,14.39,14.39,0,0,1,1.9,7.41,15,15,0,0,1-.89,5.3,13.36,13.36,0,0,1-2.56,4.24,17.75,17.75,0,0,1-4,3.31,16.5,16.5,0,0,0-3.76,3.08,9.73,9.73,0,0,0-2,3.82,18,18,0,0,0-.63,4,1.64,1.64,0,0,1-1.62,1.53ZM83,113.52a4.79,4.79,0,1,1,4.8-4.79,4.5,4.5,0,0,1-.66,2.39,5,5,0,0,1-1.73,1.75A4.51,4.51,0,0,1,83,113.52Z"/></svg>
