<?xml version="1.0" encoding="utf-8"?>
<!-- Generator: Adobe Illustrator 25.4.1, SVG Export Plug-In . SVG Version: 6.00 Build 0)  -->
<svg version="1.1" id="Layer_1" xmlns="http://www.w3.org/2000/svg" xmlns:xlink="http://www.w3.org/1999/xlink" x="0px" y="0px"
	 viewBox="0 0 108.6 94.7" style="enable-background:new 0 0 108.6 94.7;" xml:space="preserve">
<style type="text/css">
	.st0{fill:#FF941F;}
	.st1{fill:none;stroke:#393A3A;stroke-width:6;stroke-linecap:square;stroke-linejoin:round;}
	.st2{fill:none;stroke:#C6302D;stroke-width:5;stroke-linecap:square;stroke-linejoin:round;}
	.st3{fill:none;stroke:#C6302D;stroke-width:4.5601;stroke-linecap:square;stroke-linejoin:round;}
</style>
<circle class="st0" cx="760.3" cy="-702.9" r="17.5"/>
<g>
	<polyline class="st1" points="5.4,6.3 44.7,38.3 84.8,6.3 	"/>
	<path class="st2" d="M105.9,61.2c0.1,1.2,0.2,2.3,0.2,3.5c0,15.2-12.4,27.6-27.6,27.6c-15.2,0-27.6-12.4-27.6-27.6S63.3,37,78.6,37
		c4.7,0,9.3,1.2,13.4,3.5C99.8,44.6,105.1,52.4,105.9,61.2z"/>
	<path class="st1" d="M40.8,68.6H8.1c-2.9-0.1-5.2-2.4-5.1-5.3c0,0,0,0,0,0V8.3C2.9,5.5,5.2,3.1,8.1,3h73.2c2.9,0.1,5.1,2.5,5.1,5.3
		v16"/>
	<g>
		<line class="st3" x1="65.9" y1="66.4" x2="87.6" y2="66.4"/>
		<polyline class="st3" points="78.6,53.4 91.2,66 79.5,77.7 		"/>
	</g>
</g>
</svg>
