<svg xmlns="http://www.w3.org/2000/svg" xmlns:xlink="http://www.w3.org/1999/xlink" width="168.58" height="168.58" viewBox="0 0 168.58 168.58"><defs><style>.cls-1{fill:#ff941f;}.cls-2,.cls-3,.cls-4{fill:none;}.cls-2{stroke:#393a3a;stroke-width:6px;}.cls-2,.cls-3{stroke-linecap:square;stroke-linejoin:round;}.cls-3{stroke:#c6302d;stroke-width:5px;}.cls-4{opacity:0.11;}.cls-5{clip-path:url(#clip-path);}</style><clipPath id="clip-path"><circle class="cls-1" cx="978.64" cy="70.28" r="17.5"/></clipPath></defs><g id="Layer_1" data-name="Layer 1"><path class="cls-2" d="M75.88,35.76,66.67,72a25,25,0,0,1-3.74,8.21L57.81,87.6a10.76,10.76,0,0,0-.94,10.63A6.77,6.77,0,0,0,63,102.16h6.76"/><path class="cls-2" d="M56.6,97.5a2.36,2.36,0,0,1,.94-3.21l6.31-3.47A7.26,7.26,0,0,1,73,92.64l1.68,2.1a12.59,12.59,0,0,0,19.61,0L96,92.64a7.26,7.26,0,0,1,9.16-1.82l6.31,3.47a2.36,2.36,0,0,1,.94,3.21"/><path class="cls-2" d="M92.7,36.19l9.21,36.26a25,25,0,0,0,3.74,8.2L110.77,88a10.77,10.77,0,0,1,.94,10.63,6.77,6.77,0,0,1-6.13,3.93H98.82"/><line class="cls-3" x1="84.93" y1="132.82" x2="84.93" y2="112.86"/><line class="cls-3" x1="96.02" y1="132.82" x2="96.02" y2="119.51"/><line class="cls-3" x1="73.84" y1="132.82" x2="73.84" y2="119.51"/><circle class="cls-4" cx="84.29" cy="85.29" r="84.29"/><circle class="cls-1" cx="978.64" cy="70.28" r="17.5"/></g></svg>