<svg id="Layer_2" data-name="Layer 2" xmlns="http://www.w3.org/2000/svg" width="168.58" height="168.58" viewBox="0 0 168.58 168.58"><defs><style>.cls-1,.cls-2,.cls-3{fill:none;}.cls-1{opacity:0.11;}.cls-2{stroke:#c6302d;stroke-width:5px;}.cls-2,.cls-3{stroke-linecap:square;stroke-linejoin:round;}.cls-3{stroke:#393a3a;stroke-width:6px;}</style></defs><circle class="cls-1" cx="84.29" cy="84.29" r="84.29"/><path class="cls-2" d="M120.17,83.1V76.86a2,2,0,0,0-2-2H72.74a2,2,0,0,0-2,2V83.1"/><path class="cls-2" d="M62.5,83.1V39.79a2,2,0,0,0-2-2H48a2,2,0,0,0-2,2V83.1"/><rect class="cls-3" x="46.03" y="83.1" width="78.26" height="10.3"/><path class="cls-3" d="M70.74,93.4v12.53a6,6,0,0,0,6,6h37.43a6,6,0,0,0,6-6V93.4"/><path class="cls-3" d="M107.81,111.93v20.6H62.5V117a24.77,24.77,0,0,0-3.75-13.1l-5.83-9.33"/></svg>