<svg id="Layer_2" data-name="Layer 2" xmlns="http://www.w3.org/2000/svg" width="168.58" height="168.58" viewBox="0 0 168.58 168.58"><defs><style>.cls-1,.cls-2,.cls-3{fill:none;}.cls-1{opacity:0.11;}.cls-2{stroke:#393a3a;stroke-width:6px;}.cls-2,.cls-3{stroke-linecap:square;stroke-linejoin:round;}.cls-3{stroke:#c6302d;stroke-width:5px;}</style></defs><circle class="cls-1" cx="84.29" cy="84.29" r="84.29"/><line class="cls-2" x1="47.02" y1="64.56" x2="121.56" y2="64.56"/><line class="cls-2" x1="71.27" y1="95.25" x2="47.02" y2="95.25"/><line class="cls-2" x1="121.56" y1="95.25" x2="96.37" y2="95.25"/><path class="cls-2" d="M123.56,58h11.15a0,0,0,0,1,0,0v43.85a0,0,0,0,1,0,0H123.56a2,2,0,0,1-2-2V60A2,2,0,0,1,123.56,58Z"/><path class="cls-2" d="M33.87,58H45a2,2,0,0,1,2,2V99.83a2,2,0,0,1-2,2H33.87a0,0,0,0,1,0,0V58A0,0,0,0,1,33.87,58Z"/><path class="cls-3" d="M93.93,94.46,84.29,77.71,74.65,94.46a11,11,0,1,0,19.28,0Z"/></svg>